<svg width="1000" height="1000" viewBox="0 0 1000 1000" fill="none" xmlns="http://www.w3.org/2000/svg">
<circle cx="500" cy="500" r="480" fill="#D9D9D9" stroke="#484848" stroke-width="40"/>
<path d="M747.32 477.49C762.972 477.49 776.986 476.034 789.362 473.122C802.102 469.846 813.022 465.478 822.122 460.018C823.942 461.838 825.58 464.386 827.036 467.662C828.856 470.938 829.766 474.578 829.766 478.582C829.766 488.046 824.488 496.054 813.932 502.606C803.376 508.794 786.814 511.888 764.246 511.888C752.598 511.888 741.132 511.342 729.848 510.25C718.564 508.794 707.28 506.974 695.996 504.79V654.394C695.996 663.13 697.634 670.046 700.91 675.142C704.55 680.238 708.736 684.06 713.468 686.608C718.564 688.792 723.842 690.248 729.302 690.976C735.126 691.704 740.222 692.068 744.59 692.068V715C740.222 715 734.762 714.818 728.21 714.454C721.658 713.726 714.924 712.998 708.008 712.27C701.092 711.542 694.358 710.996 687.806 710.632C681.254 709.904 675.794 709.54 671.426 709.54C667.058 709.54 661.598 709.904 655.046 710.632C648.494 710.996 641.76 711.542 634.844 712.27C627.928 712.998 621.194 713.726 614.642 714.454C608.09 714.818 602.63 715 598.262 715V692.068C602.994 692.068 608.272 691.704 614.096 690.976C619.92 690.248 625.198 688.792 629.93 686.608C634.662 684.06 638.666 680.238 641.942 675.142C645.218 670.046 646.856 663.13 646.856 654.394V449.098C646.856 435.63 646.492 424.528 645.764 415.792C645.4 406.692 643.944 399.776 641.396 395.044C638.848 389.948 635.208 386.49 630.476 384.67C625.744 382.486 619.192 381.394 610.82 381.394V362.284C619.92 362.284 627.746 361.738 634.298 360.646C641.214 359.554 647.402 357.916 652.862 355.732C658.322 353.548 663.236 351 667.604 348.088C672.336 345.176 677.25 342.082 682.346 338.806H695.996V475.852C704.368 476.58 712.922 477.126 721.658 477.49C730.394 477.49 738.948 477.49 747.32 477.49ZM644.672 298.948C634.48 298.948 624.652 300.586 615.188 303.862C605.724 307.138 597.352 312.416 590.072 319.696C582.792 326.612 576.968 336.076 572.6 348.088C568.232 359.736 566.048 373.932 566.048 390.676C566.048 399.776 566.594 407.966 567.686 415.246C568.778 422.162 569.688 429.624 570.416 437.632C553.672 437.632 541.114 433.81 532.742 426.166C524.37 418.522 520.184 408.876 520.184 397.228C520.184 388.856 522.004 382.304 525.644 377.572C529.648 372.476 534.744 368.472 540.932 365.56C536.928 363.376 534.198 358.826 532.742 351.91C531.286 344.994 530.558 339.17 530.558 334.438C530.558 324.246 533.106 314.964 538.202 306.592C543.298 298.22 550.214 291.122 558.95 285.298C568.05 279.474 578.606 275.106 590.618 272.194C602.63 268.918 615.734 267.28 629.93 267.28C643.034 267.28 655.956 268.554 668.696 271.102C681.436 273.286 693.812 276.016 705.824 279.292C717.836 282.204 729.302 284.934 740.222 287.482C751.506 289.666 762.426 290.758 772.982 290.758C785.722 290.758 797.916 288.392 809.564 283.66C821.576 278.564 833.77 269.282 846.146 255.814C850.514 256.906 855.064 260.182 859.796 265.642C864.892 271.102 867.44 278.018 867.44 286.39C867.44 293.67 864.71 300.404 859.25 306.592C853.79 312.416 844.144 315.328 830.312 315.328C830.312 317.876 829.766 320.97 828.674 324.61C827.582 327.886 825.58 331.162 822.668 334.438C820.12 337.35 816.48 339.898 811.748 342.082C807.38 344.266 801.738 345.358 794.822 345.358C784.266 345.358 772.982 342.992 760.97 338.26C749.322 333.164 737.128 327.886 724.388 322.426C712.012 316.602 699.09 311.324 685.622 306.592C672.154 301.496 658.504 298.948 644.672 298.948Z" fill="#DC6F2E"/>
<path d="M789.362 473.122L792.34 485.776L792.47 485.746L792.6 485.712L789.362 473.122ZM822.122 460.018L831.314 450.826L824.137 443.648L815.434 448.871L822.122 460.018ZM827.036 467.662L815.156 472.942L815.391 473.47L815.672 473.975L827.036 467.662ZM813.932 502.606L820.506 513.821L820.648 513.738L820.788 513.651L813.932 502.606ZM729.848 510.25L728.184 523.143L728.39 523.17L728.596 523.19L729.848 510.25ZM695.996 504.79L698.466 492.027L682.996 489.033V504.79H695.996ZM700.91 675.142L689.975 682.172L690.147 682.439L690.331 682.698L700.91 675.142ZM713.468 686.608L707.305 698.054L707.815 698.329L708.347 698.557L713.468 686.608ZM729.302 690.976L727.584 703.862L727.637 703.869L727.69 703.876L729.302 690.976ZM744.59 692.068H757.59V679.068H744.59V692.068ZM744.59 715V728H757.59V715H744.59ZM728.21 714.454L726.774 727.374L727.131 727.414L727.489 727.434L728.21 714.454ZM708.008 712.27L709.369 699.341L709.369 699.341L708.008 712.27ZM687.806 710.632L686.37 723.552L686.727 723.592L687.085 723.612L687.806 710.632ZM655.046 710.632L655.767 723.612L656.125 723.592L656.482 723.552L655.046 710.632ZM634.844 712.27L636.205 725.199L636.205 725.199L634.844 712.27ZM614.642 714.454L615.363 727.434L615.721 727.414L616.078 727.374L614.642 714.454ZM598.262 715H585.262V728H598.262V715ZM598.262 692.068V679.068H585.262V692.068H598.262ZM614.096 690.976L615.708 703.876L615.708 703.876L614.096 690.976ZM629.93 686.608L635.378 698.411L635.741 698.244L636.093 698.054L629.93 686.608ZM641.942 675.142L631.007 668.112L631.007 668.112L641.942 675.142ZM645.764 415.792L632.774 416.312L632.786 416.592L632.809 416.872L645.764 415.792ZM641.396 395.044L629.768 400.858L629.857 401.034L629.95 401.207L641.396 395.044ZM630.476 384.67L625.028 396.473L625.413 396.651L625.809 396.803L630.476 384.67ZM610.82 381.394H597.82V394.394H610.82V381.394ZM610.82 362.284V349.284H597.82V362.284H610.82ZM634.298 360.646L632.271 347.805L632.216 347.814L632.161 347.823L634.298 360.646ZM652.862 355.732L648.034 343.662L648.034 343.662L652.862 355.732ZM667.604 348.088L660.791 337.016L660.59 337.14L660.393 337.271L667.604 348.088ZM682.346 338.806V325.806H678.528L675.316 327.871L682.346 338.806ZM695.996 338.806H708.996V325.806H695.996V338.806ZM695.996 475.852H682.996V487.771L694.87 488.803L695.996 475.852ZM721.658 477.49L721.117 490.479L721.387 490.49H721.658V477.49ZM615.188 303.862L610.936 291.577L610.936 291.577L615.188 303.862ZM590.072 319.696L599.026 329.121L599.147 329.006L599.264 328.888L590.072 319.696ZM572.6 348.088L584.772 352.653L584.795 352.592L584.817 352.531L572.6 348.088ZM567.686 415.246L554.83 417.174L554.837 417.224L554.845 417.273L567.686 415.246ZM570.416 437.632V450.632H584.651L583.363 436.455L570.416 437.632ZM532.742 426.166L541.508 416.566L541.507 416.566L532.742 426.166ZM525.644 377.572L515.422 369.54L515.381 369.593L515.34 369.646L525.644 377.572ZM540.932 365.56L546.467 377.323L569.647 366.415L547.157 354.147L540.932 365.56ZM532.742 351.91L520.021 354.588L520.021 354.588L532.742 351.91ZM538.202 306.592L527.097 299.833L527.097 299.833L538.202 306.592ZM558.95 285.298L551.942 274.348L551.84 274.414L551.739 274.481L558.95 285.298ZM590.618 272.194L593.681 284.828L593.86 284.785L594.039 284.736L590.618 272.194ZM668.696 271.102L666.146 283.85L666.323 283.885L666.499 283.915L668.696 271.102ZM705.824 279.292L702.403 291.834L702.582 291.883L702.761 291.926L705.824 279.292ZM740.222 287.482L737.268 300.142L737.509 300.198L737.752 300.245L740.222 287.482ZM809.564 283.66L814.457 295.704L814.549 295.667L814.641 295.628L809.564 283.66ZM846.146 255.814L849.299 243.202L841.802 241.328L836.574 247.018L846.146 255.814ZM859.796 265.642L849.972 274.156L850.129 274.337L850.292 274.512L859.796 265.642ZM859.25 306.592L868.734 315.483L868.868 315.34L868.998 315.193L859.25 306.592ZM830.312 315.328V302.328H817.312V315.328H830.312ZM828.674 324.61L841.007 328.721L841.069 328.534L841.126 328.346L828.674 324.61ZM822.668 334.438L812.952 325.801L812.918 325.839L812.885 325.877L822.668 334.438ZM811.748 342.082L806.3 330.279L806.116 330.364L805.934 330.454L811.748 342.082ZM760.97 338.26L755.759 350.17L755.981 350.267L756.205 350.355L760.97 338.26ZM724.388 322.426L718.853 334.189L719.058 334.285L719.267 334.375L724.388 322.426ZM685.622 306.592L681.021 318.751L681.166 318.806L681.313 318.857L685.622 306.592ZM747.32 490.49C763.754 490.49 778.794 488.964 792.34 485.776L786.384 460.468C775.178 463.104 762.19 464.49 747.32 464.49V490.49ZM792.6 485.712C806.276 482.196 818.415 477.403 828.81 471.165L815.434 448.871C807.629 453.553 797.928 457.496 786.124 460.532L792.6 485.712ZM812.93 469.21C813.273 469.553 814.112 470.593 815.156 472.942L838.916 462.382C837.048 458.179 834.611 454.122 831.314 450.826L812.93 469.21ZM815.672 473.975C816.346 475.188 816.766 476.631 816.766 478.582H842.766C842.766 472.525 841.366 466.688 838.4 461.349L815.672 473.975ZM816.766 478.582C816.766 482.162 815.161 486.542 807.076 491.561L820.788 513.651C833.815 505.566 842.766 493.93 842.766 478.582H816.766ZM807.358 491.391C799.856 495.789 786.16 498.888 764.246 498.888V524.888C787.468 524.888 806.896 521.799 820.506 513.821L807.358 491.391ZM764.246 498.888C753.005 498.888 741.957 498.361 731.1 497.31L728.596 523.19C740.307 524.323 752.191 524.888 764.246 524.888V498.888ZM731.512 497.357C720.501 495.936 709.486 494.16 698.466 492.027L693.526 517.553C705.074 519.788 716.627 521.652 728.184 523.143L731.512 497.357ZM682.996 504.79V654.394H708.996V504.79H682.996ZM682.996 654.394C682.996 664.577 684.879 674.245 689.975 682.172L711.845 668.112C710.389 665.847 708.996 661.683 708.996 654.394H682.996ZM690.331 682.698C694.936 689.145 700.556 694.42 707.305 698.054L719.631 675.162C716.916 673.7 714.164 671.331 711.489 667.586L690.331 682.698ZM708.347 698.557C714.522 701.203 720.945 702.977 727.584 703.862L731.02 678.09C726.739 677.519 722.606 676.381 718.589 674.659L708.347 698.557ZM727.69 703.876C733.88 704.649 739.536 705.068 744.59 705.068V679.068C740.908 679.068 736.372 678.759 730.914 678.076L727.69 703.876ZM731.59 692.068V715H757.59V692.068H731.59ZM744.59 702C740.549 702 735.349 701.831 728.931 701.474L727.489 727.434C734.175 727.805 739.895 728 744.59 728V702ZM729.646 701.534C723.067 700.803 716.308 700.072 709.369 699.341L706.647 725.199C713.54 725.924 720.249 726.649 726.774 727.374L729.646 701.534ZM709.369 699.341C702.253 698.592 695.305 698.029 688.527 697.652L687.085 723.612C693.411 723.963 699.931 724.492 706.647 725.199L709.369 699.341ZM689.242 697.712C682.427 696.954 676.449 696.54 671.426 696.54V722.54C675.139 722.54 680.082 722.854 686.37 723.552L689.242 697.712ZM671.426 696.54C666.403 696.54 660.426 696.954 653.61 697.712L656.482 723.552C662.771 722.854 667.713 722.54 671.426 722.54V696.54ZM654.325 697.652C647.547 698.029 640.599 698.592 633.483 699.341L636.205 725.199C642.921 724.492 649.441 723.963 655.767 723.612L654.325 697.652ZM633.483 699.341C626.544 700.072 619.785 700.803 613.206 701.534L616.078 727.374C622.603 726.649 629.312 725.924 636.205 725.199L633.483 699.341ZM613.921 701.474C607.503 701.831 602.303 702 598.262 702V728C602.957 728 608.677 727.805 615.363 727.434L613.921 701.474ZM611.262 715V692.068H585.262V715H611.262ZM598.262 705.068C603.643 705.068 609.471 704.655 615.708 703.876L612.484 678.076C607.073 678.753 602.345 679.068 598.262 679.068V705.068ZM615.708 703.876C622.695 703.002 629.289 701.222 635.378 698.411L624.482 674.805C621.107 676.362 617.145 677.494 612.484 678.076L615.708 703.876ZM636.093 698.054C643.001 694.335 648.564 688.881 652.877 682.172L631.007 668.112C628.768 671.595 626.323 673.785 623.767 675.162L636.093 698.054ZM652.877 682.172C657.973 674.245 659.856 664.577 659.856 654.394H633.856C633.856 661.683 632.463 665.847 631.007 668.112L652.877 682.172ZM659.856 654.394V449.098H633.856V654.394H659.856ZM659.856 449.098C659.856 435.438 659.488 423.943 658.719 414.712L632.809 416.872C633.496 425.113 633.856 435.822 633.856 449.098H659.856ZM658.754 415.272C658.358 405.391 656.763 396.163 652.842 388.881L629.95 401.207C631.125 403.389 632.442 407.993 632.774 416.312L658.754 415.272ZM653.024 389.23C649.218 381.62 643.283 375.667 635.143 372.536L625.809 396.803C627.133 397.313 628.478 398.276 629.768 400.858L653.024 389.23ZM635.924 372.867C628.757 369.559 620.062 368.394 610.82 368.394V394.394C618.322 394.394 622.731 395.413 625.028 396.473L635.924 372.867ZM623.82 381.394V362.284H597.82V381.394H623.82ZM610.82 375.284C620.394 375.284 628.973 374.713 636.435 373.469L632.161 347.823C626.519 348.763 619.446 349.284 610.82 349.284V375.284ZM636.325 373.487C644.025 372.271 651.177 370.408 657.69 367.802L648.034 343.662C643.627 345.424 638.403 346.837 632.271 347.805L636.325 373.487ZM657.69 367.802C663.887 365.323 669.615 362.371 674.815 358.905L660.393 337.271C656.857 339.629 652.757 341.773 648.034 343.662L657.69 367.802ZM674.417 359.16C679.228 356.199 684.214 353.059 689.376 349.741L675.316 327.871C670.286 331.105 665.444 334.153 660.791 337.016L674.417 359.16ZM682.346 351.806H695.996V325.806H682.346V351.806ZM682.996 338.806V475.852H708.996V338.806H682.996ZM694.87 488.803C703.444 489.549 712.193 490.107 721.117 490.479L722.199 464.501C713.651 464.145 705.292 463.611 697.122 462.901L694.87 488.803ZM721.658 490.49C721.675 490.49 721.692 490.49 721.709 490.49C721.726 490.49 721.743 490.49 721.76 490.49C721.777 490.49 721.794 490.49 721.812 490.49C721.829 490.49 721.846 490.49 721.863 490.49C721.88 490.49 721.897 490.49 721.914 490.49C721.931 490.49 721.948 490.49 721.965 490.49C721.982 490.49 721.999 490.49 722.016 490.49C722.033 490.49 722.05 490.49 722.067 490.49C722.084 490.49 722.101 490.49 722.119 490.49C722.136 490.49 722.153 490.49 722.17 490.49C722.187 490.49 722.204 490.49 722.221 490.49C722.238 490.49 722.255 490.49 722.272 490.49C722.289 490.49 722.306 490.49 722.323 490.49C722.34 490.49 722.357 490.49 722.374 490.49C722.391 490.49 722.408 490.49 722.425 490.49C722.442 490.49 722.459 490.49 722.476 490.49C722.494 490.49 722.511 490.49 722.528 490.49C722.545 490.49 722.562 490.49 722.579 490.49C722.596 490.49 722.613 490.49 722.63 490.49C722.647 490.49 722.664 490.49 722.681 490.49C722.698 490.49 722.715 490.49 722.732 490.49C722.749 490.49 722.766 490.49 722.783 490.49C722.8 490.49 722.817 490.49 722.834 490.49C722.851 490.49 722.868 490.49 722.885 490.49C722.902 490.49 722.919 490.49 722.936 490.49C722.953 490.49 722.97 490.49 722.987 490.49C723.005 490.49 723.022 490.49 723.039 490.49C723.056 490.49 723.073 490.49 723.09 490.49C723.107 490.49 723.124 490.49 723.141 490.49C723.158 490.49 723.175 490.49 723.192 490.49C723.209 490.49 723.226 490.49 723.243 490.49C723.26 490.49 723.277 490.49 723.294 490.49C723.311 490.49 723.328 490.49 723.345 490.49C723.362 490.49 723.379 490.49 723.396 490.49C723.413 490.49 723.43 490.49 723.447 490.49C723.464 490.49 723.481 490.49 723.498 490.49C723.515 490.49 723.532 490.49 723.549 490.49C723.566 490.49 723.583 490.49 723.6 490.49C723.617 490.49 723.634 490.49 723.651 490.49C723.668 490.49 723.685 490.49 723.702 490.49C723.719 490.49 723.736 490.49 723.753 490.49C723.77 490.49 723.787 490.49 723.804 490.49C723.821 490.49 723.838 490.49 723.855 490.49C723.872 490.49 723.889 490.49 723.906 490.49C723.923 490.49 723.94 490.49 723.957 490.49C723.974 490.49 723.991 490.49 724.008 490.49C724.025 490.49 724.042 490.49 724.059 490.49C724.076 490.49 724.093 490.49 724.11 490.49C724.127 490.49 724.144 490.49 724.161 490.49C724.178 490.49 724.195 490.49 724.212 490.49C724.229 490.49 724.246 490.49 724.263 490.49C724.28 490.49 724.297 490.49 724.314 490.49C724.331 490.49 724.348 490.49 724.365 490.49C724.382 490.49 724.399 490.49 724.416 490.49C724.433 490.49 724.45 490.49 724.467 490.49C724.484 490.49 724.501 490.49 724.518 490.49C724.535 490.49 724.552 490.49 724.569 490.49C724.586 490.49 724.603 490.49 724.62 490.49C724.637 490.49 724.654 490.49 724.671 490.49C724.688 490.49 724.705 490.49 724.722 490.49C724.739 490.49 724.756 490.49 724.773 490.49C724.79 490.49 724.807 490.49 724.824 490.49C724.841 490.49 724.858 490.49 724.875 490.49C724.892 490.49 724.909 490.49 724.925 490.49C724.942 490.49 724.959 490.49 724.976 490.49C724.993 490.49 725.01 490.49 725.027 490.49C725.044 490.49 725.061 490.49 725.078 490.49C725.095 490.49 725.112 490.49 725.129 490.49C725.146 490.49 725.163 490.49 725.18 490.49C725.197 490.49 725.214 490.49 725.231 490.49C725.248 490.49 725.265 490.49 725.282 490.49C725.299 490.49 725.316 490.49 725.333 490.49C725.35 490.49 725.367 490.49 725.384 490.49C725.401 490.49 725.418 490.49 725.434 490.49C725.451 490.49 725.468 490.49 725.485 490.49C725.502 490.49 725.519 490.49 725.536 490.49C725.553 490.49 725.57 490.49 725.587 490.49C725.604 490.49 725.621 490.49 725.638 490.49C725.655 490.49 725.672 490.49 725.689 490.49C725.706 490.49 725.723 490.49 725.74 490.49C725.757 490.49 725.774 490.49 725.791 490.49C725.807 490.49 725.824 490.49 725.841 490.49C725.858 490.49 725.875 490.49 725.892 490.49C725.909 490.49 725.926 490.49 725.943 490.49C725.96 490.49 725.977 490.49 725.994 490.49C726.011 490.49 726.028 490.49 726.045 490.49C726.062 490.49 726.079 490.49 726.096 490.49C726.113 490.49 726.129 490.49 726.146 490.49C726.163 490.49 726.18 490.49 726.197 490.49C726.214 490.49 726.231 490.49 726.248 490.49C726.265 490.49 726.282 490.49 726.299 490.49C726.316 490.49 726.333 490.49 726.35 490.49C726.367 490.49 726.384 490.49 726.4 490.49C726.417 490.49 726.434 490.49 726.451 490.49C726.468 490.49 726.485 490.49 726.502 490.49C726.519 490.49 726.536 490.49 726.553 490.49C726.57 490.49 726.587 490.49 726.604 490.49C726.621 490.49 726.637 490.49 726.654 490.49C726.671 490.49 726.688 490.49 726.705 490.49C726.722 490.49 726.739 490.49 726.756 490.49C726.773 490.49 726.79 490.49 726.807 490.49C726.824 490.49 726.841 490.49 726.857 490.49C726.874 490.49 726.891 490.49 726.908 490.49C726.925 490.49 726.942 490.49 726.959 490.49C726.976 490.49 726.993 490.49 727.01 490.49C727.027 490.49 727.044 490.49 727.06 490.49C727.077 490.49 727.094 490.49 727.111 490.49C727.128 490.49 727.145 490.49 727.162 490.49C727.179 490.49 727.196 490.49 727.213 490.49C727.23 490.49 727.247 490.49 727.263 490.49C727.28 490.49 727.297 490.49 727.314 490.49C727.331 490.49 727.348 490.49 727.365 490.49C727.382 490.49 727.399 490.49 727.416 490.49C727.433 490.49 727.449 490.49 727.466 490.49C727.483 490.49 727.5 490.49 727.517 490.49C727.534 490.49 727.551 490.49 727.568 490.49C727.585 490.49 727.602 490.49 727.618 490.49C727.635 490.49 727.652 490.49 727.669 490.49C727.686 490.49 727.703 490.49 727.72 490.49C727.737 490.49 727.754 490.49 727.771 490.49C727.787 490.49 727.804 490.49 727.821 490.49C727.838 490.49 727.855 490.49 727.872 490.49C727.889 490.49 727.906 490.49 727.923 490.49C727.939 490.49 727.956 490.49 727.973 490.49C727.99 490.49 728.007 490.49 728.024 490.49C728.041 490.49 728.058 490.49 728.075 490.49C728.091 490.49 728.108 490.49 728.125 490.49C728.142 490.49 728.159 490.49 728.176 490.49C728.193 490.49 728.21 490.49 728.227 490.49C728.243 490.49 728.26 490.49 728.277 490.49C728.294 490.49 728.311 490.49 728.328 490.49C728.345 490.49 728.362 490.49 728.378 490.49C728.395 490.49 728.412 490.49 728.429 490.49C728.446 490.49 728.463 490.49 728.48 490.49C728.497 490.49 728.513 490.49 728.53 490.49C728.547 490.49 728.564 490.49 728.581 490.49C728.598 490.49 728.615 490.49 728.632 490.49C728.648 490.49 728.665 490.49 728.682 490.49C728.699 490.49 728.716 490.49 728.733 490.49C728.75 490.49 728.767 490.49 728.783 490.49C728.8 490.49 728.817 490.49 728.834 490.49C728.851 490.49 728.868 490.49 728.885 490.49C728.902 490.49 728.918 490.49 728.935 490.49C728.952 490.49 728.969 490.49 728.986 490.49C729.003 490.49 729.02 490.49 729.036 490.49C729.053 490.49 729.07 490.49 729.087 490.49C729.104 490.49 729.121 490.49 729.138 490.49C729.154 490.49 729.171 490.49 729.188 490.49C729.205 490.49 729.222 490.49 729.239 490.49C729.256 490.49 729.272 490.49 729.289 490.49C729.306 490.49 729.323 490.49 729.34 490.49C729.357 490.49 729.374 490.49 729.39 490.49C729.407 490.49 729.424 490.49 729.441 490.49C729.458 490.49 729.475 490.49 729.491 490.49C729.508 490.49 729.525 490.49 729.542 490.49C729.559 490.49 729.576 490.49 729.593 490.49C729.609 490.49 729.626 490.49 729.643 490.49C729.66 490.49 729.677 490.49 729.694 490.49C729.71 490.49 729.727 490.49 729.744 490.49C729.761 490.49 729.778 490.49 729.795 490.49C729.812 490.49 729.828 490.49 729.845 490.49C729.862 490.49 729.879 490.49 729.896 490.49C729.913 490.49 729.929 490.49 729.946 490.49C729.963 490.49 729.98 490.49 729.997 490.49C730.014 490.49 730.03 490.49 730.047 490.49C730.064 490.49 730.081 490.49 730.098 490.49C730.115 490.49 730.131 490.49 730.148 490.49C730.165 490.49 730.182 490.49 730.199 490.49C730.216 490.49 730.232 490.49 730.249 490.49C730.266 490.49 730.283 490.49 730.3 490.49C730.317 490.49 730.333 490.49 730.35 490.49C730.367 490.49 730.384 490.49 730.401 490.49C730.417 490.49 730.434 490.49 730.451 490.49C730.468 490.49 730.485 490.49 730.502 490.49C730.518 490.49 730.535 490.49 730.552 490.49C730.569 490.49 730.586 490.49 730.602 490.49C730.619 490.49 730.636 490.49 730.653 490.49C730.67 490.49 730.687 490.49 730.703 490.49C730.72 490.49 730.737 490.49 730.754 490.49C730.771 490.49 730.787 490.49 730.804 490.49C730.821 490.49 730.838 490.49 730.855 490.49C730.872 490.49 730.888 490.49 730.905 490.49C730.922 490.49 730.939 490.49 730.956 490.49C730.972 490.49 730.989 490.49 731.006 490.49C731.023 490.49 731.04 490.49 731.056 490.49C731.073 490.49 731.09 490.49 731.107 490.49C731.124 490.49 731.14 490.49 731.157 490.49C731.174 490.49 731.191 490.49 731.208 490.49C731.224 490.49 731.241 490.49 731.258 490.49C731.275 490.49 731.292 490.49 731.308 490.49C731.325 490.49 731.342 490.49 731.359 490.49C731.376 490.49 731.392 490.49 731.409 490.49C731.426 490.49 731.443 490.49 731.46 490.49C731.476 490.49 731.493 490.49 731.51 490.49C731.527 490.49 731.544 490.49 731.56 490.49C731.577 490.49 731.594 490.49 731.611 490.49C731.628 490.49 731.644 490.49 731.661 490.49C731.678 490.49 731.695 490.49 731.711 490.49C731.728 490.49 731.745 490.49 731.762 490.49C731.779 490.49 731.795 490.49 731.812 490.49C731.829 490.49 731.846 490.49 731.863 490.49C731.879 490.49 731.896 490.49 731.913 490.49C731.93 490.49 731.946 490.49 731.963 490.49C731.98 490.49 731.997 490.49 732.014 490.49C732.03 490.49 732.047 490.49 732.064 490.49C732.081 490.49 732.097 490.49 732.114 490.49C732.131 490.49 732.148 490.49 732.165 490.49C732.181 490.49 732.198 490.49 732.215 490.49C732.232 490.49 732.248 490.49 732.265 490.49C732.282 490.49 732.299 490.49 732.316 490.49C732.332 490.49 732.349 490.49 732.366 490.49C732.383 490.49 732.399 490.49 732.416 490.49C732.433 490.49 732.45 490.49 732.466 490.49C732.483 490.49 732.5 490.49 732.517 490.49C732.534 490.49 732.55 490.49 732.567 490.49C732.584 490.49 732.601 490.49 732.617 490.49C732.634 490.49 732.651 490.49 732.668 490.49C732.684 490.49 732.701 490.49 732.718 490.49C732.735 490.49 732.751 490.49 732.768 490.49C732.785 490.49 732.802 490.49 732.818 490.49C732.835 490.49 732.852 490.49 732.869 490.49C732.885 490.49 732.902 490.49 732.919 490.49C732.936 490.49 732.952 490.49 732.969 490.49C732.986 490.49 733.003 490.49 733.02 490.49C733.036 490.49 733.053 490.49 733.07 490.49C733.087 490.49 733.103 490.49 733.12 490.49C733.137 490.49 733.153 490.49 733.17 490.49C733.187 490.49 733.204 490.49 733.22 490.49C733.237 490.49 733.254 490.49 733.271 490.49C733.287 490.49 733.304 490.49 733.321 490.49C733.338 490.49 733.354 490.49 733.371 490.49C733.388 490.49 733.405 490.49 733.421 490.49C733.438 490.49 733.455 490.49 733.472 490.49C733.488 490.49 733.505 490.49 733.522 490.49C733.539 490.49 733.555 490.49 733.572 490.49C733.589 490.49 733.606 490.49 733.622 490.49C733.639 490.49 733.656 490.49 733.672 490.49C733.689 490.49 733.706 490.49 733.723 490.49C733.739 490.49 733.756 490.49 733.773 490.49C733.79 490.49 733.806 490.49 733.823 490.49C733.84 490.49 733.856 490.49 733.873 490.49C733.89 490.49 733.907 490.49 733.923 490.49C733.94 490.49 733.957 490.49 733.974 490.49C733.99 490.49 734.007 490.49 734.024 490.49C734.04 490.49 734.057 490.49 734.074 490.49C734.091 490.49 734.107 490.49 734.124 490.49C734.141 490.49 734.158 490.49 734.174 490.49C734.191 490.49 734.208 490.49 734.224 490.49C734.241 490.49 734.258 490.49 734.275 490.49C734.291 490.49 734.308 490.49 734.325 490.49C734.341 490.49 734.358 490.49 734.375 490.49C734.392 490.49 734.408 490.49 734.425 490.49C734.442 490.49 734.458 490.49 734.475 490.49C734.492 490.49 734.509 490.49 734.525 490.49C734.542 490.49 734.559 490.49 734.575 490.49C734.592 490.49 734.609 490.49 734.626 490.49C734.642 490.49 734.659 490.49 734.676 490.49C734.692 490.49 734.709 490.49 734.726 490.49C734.742 490.49 734.759 490.49 734.776 490.49C734.793 490.49 734.809 490.49 734.826 490.49C734.843 490.49 734.859 490.49 734.876 490.49C734.893 490.49 734.909 490.49 734.926 490.49C734.943 490.49 734.96 490.49 734.976 490.49C734.993 490.49 735.01 490.49 735.026 490.49C735.043 490.49 735.06 490.49 735.076 490.49C735.093 490.49 735.11 490.49 735.127 490.49C735.143 490.49 735.16 490.49 735.177 490.49C735.193 490.49 735.21 490.49 735.227 490.49C735.243 490.49 735.26 490.49 735.277 490.49C735.293 490.49 735.31 490.49 735.327 490.49C735.343 490.49 735.36 490.49 735.377 490.49C735.394 490.49 735.41 490.49 735.427 490.49C735.444 490.49 735.46 490.49 735.477 490.49C735.494 490.49 735.51 490.49 735.527 490.49C735.544 490.49 735.56 490.49 735.577 490.49C735.594 490.49 735.61 490.49 735.627 490.49C735.644 490.49 735.66 490.49 735.677 490.49C735.694 490.49 735.71 490.49 735.727 490.49C735.744 490.49 735.761 490.49 735.777 490.49C735.794 490.49 735.811 490.49 735.827 490.49C735.844 490.49 735.861 490.49 735.877 490.49C735.894 490.49 735.911 490.49 735.927 490.49C735.944 490.49 735.961 490.49 735.977 490.49C735.994 490.49 736.011 490.49 736.027 490.49C736.044 490.49 736.061 490.49 736.077 490.49C736.094 490.49 736.111 490.49 736.127 490.49C736.144 490.49 736.161 490.49 736.177 490.49C736.194 490.49 736.211 490.49 736.227 490.49C736.244 490.49 736.261 490.49 736.277 490.49C736.294 490.49 736.311 490.49 736.327 490.49C736.344 490.49 736.361 490.49 736.377 490.49C736.394 490.49 736.411 490.49 736.427 490.49C736.444 490.49 736.46 490.49 736.477 490.49C736.494 490.49 736.51 490.49 736.527 490.49C736.544 490.49 736.56 490.49 736.577 490.49C736.594 490.49 736.61 490.49 736.627 490.49C736.644 490.49 736.66 490.49 736.677 490.49C736.694 490.49 736.71 490.49 736.727 490.49C736.744 490.49 736.76 490.49 736.777 490.49C736.794 490.49 736.81 490.49 736.827 490.49C736.843 490.49 736.86 490.49 736.877 490.49C736.893 490.49 736.91 490.49 736.927 490.49C736.943 490.49 736.96 490.49 736.977 490.49C736.993 490.49 737.01 490.49 737.027 490.49C737.043 490.49 737.06 490.49 737.076 490.49C737.093 490.49 737.11 490.49 737.126 490.49C737.143 490.49 737.16 490.49 737.176 490.49C737.193 490.49 737.21 490.49 737.226 490.49C737.243 490.49 737.259 490.49 737.276 490.49C737.293 490.49 737.309 490.49 737.326 490.49C737.343 490.49 737.359 490.49 737.376 490.49C737.392 490.49 737.409 490.49 737.426 490.49C737.442 490.49 737.459 490.49 737.476 490.49C737.492 490.49 737.509 490.49 737.526 490.49C737.542 490.49 737.559 490.49 737.575 490.49C737.592 490.49 737.609 490.49 737.625 490.49C737.642 490.49 737.659 490.49 737.675 490.49C737.692 490.49 737.708 490.49 737.725 490.49C737.742 490.49 737.758 490.49 737.775 490.49C737.791 490.49 737.808 490.49 737.825 490.49C737.841 490.49 737.858 490.49 737.875 490.49C737.891 490.49 737.908 490.49 737.924 490.49C737.941 490.49 737.958 490.49 737.974 490.49C737.991 490.49 738.008 490.49 738.024 490.49C738.041 490.49 738.057 490.49 738.074 490.49C738.091 490.49 738.107 490.49 738.124 490.49C738.14 490.49 738.157 490.49 738.174 490.49C738.19 490.49 738.207 490.49 738.223 490.49C738.24 490.49 738.257 490.49 738.273 490.49C738.29 490.49 738.306 490.49 738.323 490.49C738.34 490.49 738.356 490.49 738.373 490.49C738.389 490.49 738.406 490.49 738.423 490.49C738.439 490.49 738.456 490.49 738.472 490.49C738.489 490.49 738.506 490.49 738.522 490.49C738.539 490.49 738.555 490.49 738.572 490.49C738.589 490.49 738.605 490.49 738.622 490.49C738.638 490.49 738.655 490.49 738.672 490.49C738.688 490.49 738.705 490.49 738.721 490.49C738.738 490.49 738.755 490.49 738.771 490.49C738.788 490.49 738.804 490.49 738.821 490.49C738.838 490.49 738.854 490.49 738.871 490.49C738.887 490.49 738.904 490.49 738.921 490.49C738.937 490.49 738.954 490.49 738.97 490.49C738.987 490.49 739.003 490.49 739.02 490.49C739.037 490.49 739.053 490.49 739.07 490.49C739.086 490.49 739.103 490.49 739.12 490.49C739.136 490.49 739.153 490.49 739.169 490.49C739.186 490.49 739.202 490.49 739.219 490.49C739.236 490.49 739.252 490.49 739.269 490.49C739.285 490.49 739.302 490.49 739.318 490.49C739.335 490.49 739.352 490.49 739.368 490.49C739.385 490.49 739.401 490.49 739.418 490.49C739.435 490.49 739.451 490.49 739.468 490.49C739.484 490.49 739.501 490.49 739.517 490.49C739.534 490.49 739.551 490.49 739.567 490.49C739.584 490.49 739.6 490.49 739.617 490.49C739.633 490.49 739.65 490.49 739.666 490.49C739.683 490.49 739.7 490.49 739.716 490.49C739.733 490.49 739.749 490.49 739.766 490.49C739.782 490.49 739.799 490.49 739.816 490.49C739.832 490.49 739.849 490.49 739.865 490.49C739.882 490.49 739.898 490.49 739.915 490.49C739.932 490.49 739.948 490.49 739.965 490.49C739.981 490.49 739.998 490.49 740.014 490.49C740.031 490.49 740.047 490.49 740.064 490.49C740.081 490.49 740.097 490.49 740.114 490.49C740.13 490.49 740.147 490.49 740.163 490.49C740.18 490.49 740.196 490.49 740.213 490.49C740.229 490.49 740.246 490.49 740.263 490.49C740.279 490.49 740.296 490.49 740.312 490.49C740.329 490.49 740.345 490.49 740.362 490.49C740.378 490.49 740.395 490.49 740.412 490.49C740.428 490.49 740.445 490.49 740.461 490.49C740.478 490.49 740.494 490.49 740.511 490.49C740.527 490.49 740.544 490.49 740.56 490.49C740.577 490.49 740.594 490.49 740.61 490.49C740.627 490.49 740.643 490.49 740.66 490.49C740.676 490.49 740.693 490.49 740.709 490.49C740.726 490.49 740.742 490.49 740.759 490.49C740.775 490.49 740.792 490.49 740.808 490.49C740.825 490.49 740.842 490.49 740.858 490.49C740.875 490.49 740.891 490.49 740.908 490.49C740.924 490.49 740.941 490.49 740.957 490.49C740.974 490.49 740.99 490.49 741.007 490.49C741.023 490.49 741.04 490.49 741.056 490.49C741.073 490.49 741.09 490.49 741.106 490.49C741.123 490.49 741.139 490.49 741.156 490.49C741.172 490.49 741.189 490.49 741.205 490.49C741.222 490.49 741.238 490.49 741.255 490.49C741.271 490.49 741.288 490.49 741.304 490.49C741.321 490.49 741.337 490.49 741.354 490.49C741.37 490.49 741.387 490.49 741.403 490.49C741.42 490.49 741.436 490.49 741.453 490.49C741.47 490.49 741.486 490.49 741.503 490.49C741.519 490.49 741.536 490.49 741.552 490.49C741.569 490.49 741.585 490.49 741.602 490.49C741.618 490.49 741.635 490.49 741.651 490.49C741.668 490.49 741.684 490.49 741.701 490.49C741.717 490.49 741.734 490.49 741.75 490.49C741.767 490.49 741.783 490.49 741.8 490.49C741.816 490.49 741.833 490.49 741.849 490.49C741.866 490.49 741.882 490.49 741.899 490.49C741.915 490.49 741.932 490.49 741.948 490.49C741.965 490.49 741.981 490.49 741.998 490.49C742.014 490.49 742.031 490.49 742.047 490.49C742.064 490.49 742.08 490.49 742.097 490.49C742.113 490.49 742.13 490.49 742.146 490.49C742.163 490.49 742.179 490.49 742.196 490.49C742.212 490.49 742.229 490.49 742.245 490.49C742.262 490.49 742.278 490.49 742.295 490.49C742.311 490.49 742.328 490.49 742.344 490.49C742.361 490.49 742.377 490.49 742.394 490.49C742.41 490.49 742.427 490.49 742.443 490.49C742.46 490.49 742.476 490.49 742.493 490.49C742.509 490.49 742.526 490.49 742.542 490.49C742.559 490.49 742.575 490.49 742.592 490.49C742.608 490.49 742.625 490.49 742.641 490.49C742.657 490.49 742.674 490.49 742.69 490.49C742.707 490.49 742.723 490.49 742.74 490.49C742.756 490.49 742.773 490.49 742.789 490.49C742.806 490.49 742.822 490.49 742.839 490.49C742.855 490.49 742.872 490.49 742.888 490.49C742.905 490.49 742.921 490.49 742.938 490.49C742.954 490.49 742.971 490.49 742.987 490.49C743.004 490.49 743.02 490.49 743.036 490.49C743.053 490.49 743.069 490.49 743.086 490.49C743.102 490.49 743.119 490.49 743.135 490.49C743.152 490.49 743.168 490.49 743.185 490.49C743.201 490.49 743.218 490.49 743.234 490.49C743.251 490.49 743.267 490.49 743.284 490.49C743.3 490.49 743.316 490.49 743.333 490.49C743.349 490.49 743.366 490.49 743.382 490.49C743.399 490.49 743.415 490.49 743.432 490.49C743.448 490.49 743.465 490.49 743.481 490.49C743.498 490.49 743.514 490.49 743.53 490.49C743.547 490.49 743.563 490.49 743.58 490.49C743.596 490.49 743.613 490.49 743.629 490.49C743.646 490.49 743.662 490.49 743.679 490.49C743.695 490.49 743.711 490.49 743.728 490.49C743.744 490.49 743.761 490.49 743.777 490.49C743.794 490.49 743.81 490.49 743.827 490.49C743.843 490.49 743.86 490.49 743.876 490.49C743.892 490.49 743.909 490.49 743.925 490.49C743.942 490.49 743.958 490.49 743.975 490.49C743.991 490.49 744.008 490.49 744.024 490.49C744.04 490.49 744.057 490.49 744.073 490.49C744.09 490.49 744.106 490.49 744.123 490.49C744.139 490.49 744.156 490.49 744.172 490.49C744.188 490.49 744.205 490.49 744.221 490.49C744.238 490.49 744.254 490.49 744.271 490.49C744.287 490.49 744.303 490.49 744.32 490.49C744.336 490.49 744.353 490.49 744.369 490.49C744.386 490.49 744.402 490.49 744.419 490.49C744.435 490.49 744.451 490.49 744.468 490.49C744.484 490.49 744.501 490.49 744.517 490.49C744.534 490.49 744.55 490.49 744.566 490.49C744.583 490.49 744.599 490.49 744.616 490.49C744.632 490.49 744.649 490.49 744.665 490.49C744.681 490.49 744.698 490.49 744.714 490.49C744.731 490.49 744.747 490.49 744.764 490.49C744.78 490.49 744.796 490.49 744.813 490.49C744.829 490.49 744.846 490.49 744.862 490.49C744.878 490.49 744.895 490.49 744.911 490.49C744.928 490.49 744.944 490.49 744.961 490.49C744.977 490.49 744.993 490.49 745.01 490.49C745.026 490.49 745.043 490.49 745.059 490.49C745.076 490.49 745.092 490.49 745.108 490.49C745.125 490.49 745.141 490.49 745.158 490.49C745.174 490.49 745.19 490.49 745.207 490.49C745.223 490.49 745.24 490.49 745.256 490.49C745.272 490.49 745.289 490.49 745.305 490.49C745.322 490.49 745.338 490.49 745.354 490.49C745.371 490.49 745.387 490.49 745.404 490.49C745.42 490.49 745.437 490.49 745.453 490.49C745.469 490.49 745.486 490.49 745.502 490.49C745.519 490.49 745.535 490.49 745.551 490.49C745.568 490.49 745.584 490.49 745.601 490.49C745.617 490.49 745.633 490.49 745.65 490.49C745.666 490.49 745.683 490.49 745.699 490.49C745.715 490.49 745.732 490.49 745.748 490.49C745.765 490.49 745.781 490.49 745.797 490.49C745.814 490.49 745.83 490.49 745.846 490.49C745.863 490.49 745.879 490.49 745.896 490.49C745.912 490.49 745.928 490.49 745.945 490.49C745.961 490.49 745.978 490.49 745.994 490.49C746.01 490.49 746.027 490.49 746.043 490.49C746.06 490.49 746.076 490.49 746.092 490.49C746.109 490.49 746.125 490.49 746.141 490.49C746.158 490.49 746.174 490.49 746.191 490.49C746.207 490.49 746.223 490.49 746.24 490.49C746.256 490.49 746.273 490.49 746.289 490.49C746.305 490.49 746.322 490.49 746.338 490.49C746.354 490.49 746.371 490.49 746.387 490.49C746.404 490.49 746.42 490.49 746.436 490.49C746.453 490.49 746.469 490.49 746.485 490.49C746.502 490.49 746.518 490.49 746.535 490.49C746.551 490.49 746.567 490.49 746.584 490.49C746.6 490.49 746.616 490.49 746.633 490.49C746.649 490.49 746.666 490.49 746.682 490.49C746.698 490.49 746.715 490.49 746.731 490.49C746.747 490.49 746.764 490.49 746.78 490.49C746.797 490.49 746.813 490.49 746.829 490.49C746.846 490.49 746.862 490.49 746.878 490.49C746.895 490.49 746.911 490.49 746.927 490.49C746.944 490.49 746.96 490.49 746.977 490.49C746.993 490.49 747.009 490.49 747.026 490.49C747.042 490.49 747.058 490.49 747.075 490.49C747.091 490.49 747.107 490.49 747.124 490.49C747.14 490.49 747.156 490.49 747.173 490.49C747.189 490.49 747.206 490.49 747.222 490.49C747.238 490.49 747.255 490.49 747.271 490.49C747.287 490.49 747.304 490.49 747.32 490.49V464.49C747.304 464.49 747.287 464.49 747.271 464.49C747.255 464.49 747.238 464.49 747.222 464.49C747.206 464.49 747.189 464.49 747.173 464.49C747.156 464.49 747.14 464.49 747.124 464.49C747.107 464.49 747.091 464.49 747.075 464.49C747.058 464.49 747.042 464.49 747.026 464.49C747.009 464.49 746.993 464.49 746.977 464.49C746.96 464.49 746.944 464.49 746.927 464.49C746.911 464.49 746.895 464.49 746.878 464.49C746.862 464.49 746.846 464.49 746.829 464.49C746.813 464.49 746.797 464.49 746.78 464.49C746.764 464.49 746.747 464.49 746.731 464.49C746.715 464.49 746.698 464.49 746.682 464.49C746.666 464.49 746.649 464.49 746.633 464.49C746.616 464.49 746.6 464.49 746.584 464.49C746.567 464.49 746.551 464.49 746.535 464.49C746.518 464.49 746.502 464.49 746.485 464.49C746.469 464.49 746.453 464.49 746.436 464.49C746.42 464.49 746.404 464.49 746.387 464.49C746.371 464.49 746.354 464.49 746.338 464.49C746.322 464.49 746.305 464.49 746.289 464.49C746.273 464.49 746.256 464.49 746.24 464.49C746.223 464.49 746.207 464.49 746.191 464.49C746.174 464.49 746.158 464.49 746.141 464.49C746.125 464.49 746.109 464.49 746.092 464.49C746.076 464.49 746.06 464.49 746.043 464.49C746.027 464.49 746.01 464.49 745.994 464.49C745.978 464.49 745.961 464.49 745.945 464.49C745.928 464.49 745.912 464.49 745.896 464.49C745.879 464.49 745.863 464.49 745.846 464.49C745.83 464.49 745.814 464.49 745.797 464.49C745.781 464.49 745.765 464.49 745.748 464.49C745.732 464.49 745.715 464.49 745.699 464.49C745.683 464.49 745.666 464.49 745.65 464.49C745.633 464.49 745.617 464.49 745.601 464.49C745.584 464.49 745.568 464.49 745.551 464.49C745.535 464.49 745.519 464.49 745.502 464.49C745.486 464.49 745.469 464.49 745.453 464.49C745.437 464.49 745.42 464.49 745.404 464.49C745.387 464.49 745.371 464.49 745.354 464.49C745.338 464.49 745.322 464.49 745.305 464.49C745.289 464.49 745.272 464.49 745.256 464.49C745.24 464.49 745.223 464.49 745.207 464.49C745.19 464.49 745.174 464.49 745.158 464.49C745.141 464.49 745.125 464.49 745.108 464.49C745.092 464.49 745.076 464.49 745.059 464.49C745.043 464.49 745.026 464.49 745.01 464.49C744.993 464.49 744.977 464.49 744.961 464.49C744.944 464.49 744.928 464.49 744.911 464.49C744.895 464.49 744.878 464.49 744.862 464.49C744.846 464.49 744.829 464.49 744.813 464.49C744.796 464.49 744.78 464.49 744.764 464.49C744.747 464.49 744.731 464.49 744.714 464.49C744.698 464.49 744.681 464.49 744.665 464.49C744.649 464.49 744.632 464.49 744.616 464.49C744.599 464.49 744.583 464.49 744.566 464.49C744.55 464.49 744.534 464.49 744.517 464.49C744.501 464.49 744.484 464.49 744.468 464.49C744.451 464.49 744.435 464.49 744.419 464.49C744.402 464.49 744.386 464.49 744.369 464.49C744.353 464.49 744.336 464.49 744.32 464.49C744.303 464.49 744.287 464.49 744.271 464.49C744.254 464.49 744.238 464.49 744.221 464.49C744.205 464.49 744.188 464.49 744.172 464.49C744.156 464.49 744.139 464.49 744.123 464.49C744.106 464.49 744.09 464.49 744.073 464.49C744.057 464.49 744.04 464.49 744.024 464.49C744.008 464.49 743.991 464.49 743.975 464.49C743.958 464.49 743.942 464.49 743.925 464.49C743.909 464.49 743.892 464.49 743.876 464.49C743.86 464.49 743.843 464.49 743.827 464.49C743.81 464.49 743.794 464.49 743.777 464.49C743.761 464.49 743.744 464.49 743.728 464.49C743.711 464.49 743.695 464.49 743.679 464.49C743.662 464.49 743.646 464.49 743.629 464.49C743.613 464.49 743.596 464.49 743.58 464.49C743.563 464.49 743.547 464.49 743.53 464.49C743.514 464.49 743.498 464.49 743.481 464.49C743.465 464.49 743.448 464.49 743.432 464.49C743.415 464.49 743.399 464.49 743.382 464.49C743.366 464.49 743.349 464.49 743.333 464.49C743.316 464.49 743.3 464.49 743.284 464.49C743.267 464.49 743.251 464.49 743.234 464.49C743.218 464.49 743.201 464.49 743.185 464.49C743.168 464.49 743.152 464.49 743.135 464.49C743.119 464.49 743.102 464.49 743.086 464.49C743.069 464.49 743.053 464.49 743.036 464.49C743.02 464.49 743.004 464.49 742.987 464.49C742.971 464.49 742.954 464.49 742.938 464.49C742.921 464.49 742.905 464.49 742.888 464.49C742.872 464.49 742.855 464.49 742.839 464.49C742.822 464.49 742.806 464.49 742.789 464.49C742.773 464.49 742.756 464.49 742.74 464.49C742.723 464.49 742.707 464.49 742.69 464.49C742.674 464.49 742.657 464.49 742.641 464.49C742.625 464.49 742.608 464.49 742.592 464.49C742.575 464.49 742.559 464.49 742.542 464.49C742.526 464.49 742.509 464.49 742.493 464.49C742.476 464.49 742.46 464.49 742.443 464.49C742.427 464.49 742.41 464.49 742.394 464.49C742.377 464.49 742.361 464.49 742.344 464.49C742.328 464.49 742.311 464.49 742.295 464.49C742.278 464.49 742.262 464.49 742.245 464.49C742.229 464.49 742.212 464.49 742.196 464.49C742.179 464.49 742.163 464.49 742.146 464.49C742.13 464.49 742.113 464.49 742.097 464.49C742.08 464.49 742.064 464.49 742.047 464.49C742.031 464.49 742.014 464.49 741.998 464.49C741.981 464.49 741.965 464.49 741.948 464.49C741.932 464.49 741.915 464.49 741.899 464.49C741.882 464.49 741.866 464.49 741.849 464.49C741.833 464.49 741.816 464.49 741.8 464.49C741.783 464.49 741.767 464.49 741.75 464.49C741.734 464.49 741.717 464.49 741.701 464.49C741.684 464.49 741.668 464.49 741.651 464.49C741.635 464.49 741.618 464.49 741.602 464.49C741.585 464.49 741.569 464.49 741.552 464.49C741.536 464.49 741.519 464.49 741.503 464.49C741.486 464.49 741.47 464.49 741.453 464.49C741.436 464.49 741.42 464.49 741.403 464.49C741.387 464.49 741.37 464.49 741.354 464.49C741.337 464.49 741.321 464.49 741.304 464.49C741.288 464.49 741.271 464.49 741.255 464.49C741.238 464.49 741.222 464.49 741.205 464.49C741.189 464.49 741.172 464.49 741.156 464.49C741.139 464.49 741.123 464.49 741.106 464.49C741.09 464.49 741.073 464.49 741.056 464.49C741.04 464.49 741.023 464.49 741.007 464.49C740.99 464.49 740.974 464.49 740.957 464.49C740.941 464.49 740.924 464.49 740.908 464.49C740.891 464.49 740.875 464.49 740.858 464.49C740.842 464.49 740.825 464.49 740.808 464.49C740.792 464.49 740.775 464.49 740.759 464.49C740.742 464.49 740.726 464.49 740.709 464.49C740.693 464.49 740.676 464.49 740.66 464.49C740.643 464.49 740.627 464.49 740.61 464.49C740.594 464.49 740.577 464.49 740.56 464.49C740.544 464.49 740.527 464.49 740.511 464.49C740.494 464.49 740.478 464.49 740.461 464.49C740.445 464.49 740.428 464.49 740.412 464.49C740.395 464.49 740.378 464.49 740.362 464.49C740.345 464.49 740.329 464.49 740.312 464.49C740.296 464.49 740.279 464.49 740.263 464.49C740.246 464.49 740.229 464.49 740.213 464.49C740.196 464.49 740.18 464.49 740.163 464.49C740.147 464.49 740.13 464.49 740.114 464.49C740.097 464.49 740.081 464.49 740.064 464.49C740.047 464.49 740.031 464.49 740.014 464.49C739.998 464.49 739.981 464.49 739.965 464.49C739.948 464.49 739.932 464.49 739.915 464.49C739.898 464.49 739.882 464.49 739.865 464.49C739.849 464.49 739.832 464.49 739.816 464.49C739.799 464.49 739.782 464.49 739.766 464.49C739.749 464.49 739.733 464.49 739.716 464.49C739.7 464.49 739.683 464.49 739.666 464.49C739.65 464.49 739.633 464.49 739.617 464.49C739.6 464.49 739.584 464.49 739.567 464.49C739.551 464.49 739.534 464.49 739.517 464.49C739.501 464.49 739.484 464.49 739.468 464.49C739.451 464.49 739.435 464.49 739.418 464.49C739.401 464.49 739.385 464.49 739.368 464.49C739.352 464.49 739.335 464.49 739.318 464.49C739.302 464.49 739.285 464.49 739.269 464.49C739.252 464.49 739.236 464.49 739.219 464.49C739.202 464.49 739.186 464.49 739.169 464.49C739.153 464.49 739.136 464.49 739.12 464.49C739.103 464.49 739.086 464.49 739.07 464.49C739.053 464.49 739.037 464.49 739.02 464.49C739.003 464.49 738.987 464.49 738.97 464.49C738.954 464.49 738.937 464.49 738.921 464.49C738.904 464.49 738.887 464.49 738.871 464.49C738.854 464.49 738.838 464.49 738.821 464.49C738.804 464.49 738.788 464.49 738.771 464.49C738.755 464.49 738.738 464.49 738.721 464.49C738.705 464.49 738.688 464.49 738.672 464.49C738.655 464.49 738.638 464.49 738.622 464.49C738.605 464.49 738.589 464.49 738.572 464.49C738.555 464.49 738.539 464.49 738.522 464.49C738.506 464.49 738.489 464.49 738.472 464.49C738.456 464.49 738.439 464.49 738.423 464.49C738.406 464.49 738.389 464.49 738.373 464.49C738.356 464.49 738.34 464.49 738.323 464.49C738.306 464.49 738.29 464.49 738.273 464.49C738.257 464.49 738.24 464.49 738.223 464.49C738.207 464.49 738.19 464.49 738.174 464.49C738.157 464.49 738.14 464.49 738.124 464.49C738.107 464.49 738.091 464.49 738.074 464.49C738.057 464.49 738.041 464.49 738.024 464.49C738.008 464.49 737.991 464.49 737.974 464.49C737.958 464.49 737.941 464.49 737.924 464.49C737.908 464.49 737.891 464.49 737.875 464.49C737.858 464.49 737.841 464.49 737.825 464.49C737.808 464.49 737.791 464.49 737.775 464.49C737.758 464.49 737.742 464.49 737.725 464.49C737.708 464.49 737.692 464.49 737.675 464.49C737.659 464.49 737.642 464.49 737.625 464.49C737.609 464.49 737.592 464.49 737.575 464.49C737.559 464.49 737.542 464.49 737.526 464.49C737.509 464.49 737.492 464.49 737.476 464.49C737.459 464.49 737.442 464.49 737.426 464.49C737.409 464.49 737.392 464.49 737.376 464.49C737.359 464.49 737.343 464.49 737.326 464.49C737.309 464.49 737.293 464.49 737.276 464.49C737.259 464.49 737.243 464.49 737.226 464.49C737.21 464.49 737.193 464.49 737.176 464.49C737.16 464.49 737.143 464.49 737.126 464.49C737.11 464.49 737.093 464.49 737.076 464.49C737.06 464.49 737.043 464.49 737.027 464.49C737.01 464.49 736.993 464.49 736.977 464.49C736.96 464.49 736.943 464.49 736.927 464.49C736.91 464.49 736.893 464.49 736.877 464.49C736.86 464.49 736.843 464.49 736.827 464.49C736.81 464.49 736.794 464.49 736.777 464.49C736.76 464.49 736.744 464.49 736.727 464.49C736.71 464.49 736.694 464.49 736.677 464.49C736.66 464.49 736.644 464.49 736.627 464.49C736.61 464.49 736.594 464.49 736.577 464.49C736.56 464.49 736.544 464.49 736.527 464.49C736.51 464.49 736.494 464.49 736.477 464.49C736.46 464.49 736.444 464.49 736.427 464.49C736.411 464.49 736.394 464.49 736.377 464.49C736.361 464.49 736.344 464.49 736.327 464.49C736.311 464.49 736.294 464.49 736.277 464.49C736.261 464.49 736.244 464.49 736.227 464.49C736.211 464.49 736.194 464.49 736.177 464.49C736.161 464.49 736.144 464.49 736.127 464.49C736.111 464.49 736.094 464.49 736.077 464.49C736.061 464.49 736.044 464.49 736.027 464.49C736.011 464.49 735.994 464.49 735.977 464.49C735.961 464.49 735.944 464.49 735.927 464.49C735.911 464.49 735.894 464.49 735.877 464.49C735.861 464.49 735.844 464.49 735.827 464.49C735.811 464.49 735.794 464.49 735.777 464.49C735.761 464.49 735.744 464.49 735.727 464.49C735.71 464.49 735.694 464.49 735.677 464.49C735.66 464.49 735.644 464.49 735.627 464.49C735.61 464.49 735.594 464.49 735.577 464.49C735.56 464.49 735.544 464.49 735.527 464.49C735.51 464.49 735.494 464.49 735.477 464.49C735.46 464.49 735.444 464.49 735.427 464.49C735.41 464.49 735.394 464.49 735.377 464.49C735.36 464.49 735.343 464.49 735.327 464.49C735.31 464.49 735.293 464.49 735.277 464.49C735.26 464.49 735.243 464.49 735.227 464.49C735.21 464.49 735.193 464.49 735.177 464.49C735.16 464.49 735.143 464.49 735.127 464.49C735.11 464.49 735.093 464.49 735.076 464.49C735.06 464.49 735.043 464.49 735.026 464.49C735.01 464.49 734.993 464.49 734.976 464.49C734.96 464.49 734.943 464.49 734.926 464.49C734.909 464.49 734.893 464.49 734.876 464.49C734.859 464.49 734.843 464.49 734.826 464.49C734.809 464.49 734.793 464.49 734.776 464.49C734.759 464.49 734.742 464.49 734.726 464.49C734.709 464.49 734.692 464.49 734.676 464.49C734.659 464.49 734.642 464.49 734.626 464.49C734.609 464.49 734.592 464.49 734.575 464.49C734.559 464.49 734.542 464.49 734.525 464.49C734.509 464.49 734.492 464.49 734.475 464.49C734.458 464.49 734.442 464.49 734.425 464.49C734.408 464.49 734.392 464.49 734.375 464.49C734.358 464.49 734.341 464.49 734.325 464.49C734.308 464.49 734.291 464.49 734.275 464.49C734.258 464.49 734.241 464.49 734.224 464.49C734.208 464.49 734.191 464.49 734.174 464.49C734.158 464.49 734.141 464.49 734.124 464.49C734.107 464.49 734.091 464.49 734.074 464.49C734.057 464.49 734.04 464.49 734.024 464.49C734.007 464.49 733.99 464.49 733.974 464.49C733.957 464.49 733.94 464.49 733.923 464.49C733.907 464.49 733.89 464.49 733.873 464.49C733.856 464.49 733.84 464.49 733.823 464.49C733.806 464.49 733.79 464.49 733.773 464.49C733.756 464.49 733.739 464.49 733.723 464.49C733.706 464.49 733.689 464.49 733.672 464.49C733.656 464.49 733.639 464.49 733.622 464.49C733.606 464.49 733.589 464.49 733.572 464.49C733.555 464.49 733.539 464.49 733.522 464.49C733.505 464.49 733.488 464.49 733.472 464.49C733.455 464.49 733.438 464.49 733.421 464.49C733.405 464.49 733.388 464.49 733.371 464.49C733.354 464.49 733.338 464.49 733.321 464.49C733.304 464.49 733.287 464.49 733.271 464.49C733.254 464.49 733.237 464.49 733.22 464.49C733.204 464.49 733.187 464.49 733.17 464.49C733.153 464.49 733.137 464.49 733.12 464.49C733.103 464.49 733.087 464.49 733.07 464.49C733.053 464.49 733.036 464.49 733.02 464.49C733.003 464.49 732.986 464.49 732.969 464.49C732.952 464.49 732.936 464.49 732.919 464.49C732.902 464.49 732.885 464.49 732.869 464.49C732.852 464.49 732.835 464.49 732.818 464.49C732.802 464.49 732.785 464.49 732.768 464.49C732.751 464.49 732.735 464.49 732.718 464.49C732.701 464.49 732.684 464.49 732.668 464.49C732.651 464.49 732.634 464.49 732.617 464.49C732.601 464.49 732.584 464.49 732.567 464.49C732.55 464.49 732.534 464.49 732.517 464.49C732.5 464.49 732.483 464.49 732.466 464.49C732.45 464.49 732.433 464.49 732.416 464.49C732.399 464.49 732.383 464.49 732.366 464.49C732.349 464.49 732.332 464.49 732.316 464.49C732.299 464.49 732.282 464.49 732.265 464.49C732.248 464.49 732.232 464.49 732.215 464.49C732.198 464.49 732.181 464.49 732.165 464.49C732.148 464.49 732.131 464.49 732.114 464.49C732.097 464.49 732.081 464.49 732.064 464.49C732.047 464.49 732.03 464.49 732.014 464.49C731.997 464.49 731.98 464.49 731.963 464.49C731.946 464.49 731.93 464.49 731.913 464.49C731.896 464.49 731.879 464.49 731.863 464.49C731.846 464.49 731.829 464.49 731.812 464.49C731.795 464.49 731.779 464.49 731.762 464.49C731.745 464.49 731.728 464.49 731.711 464.49C731.695 464.49 731.678 464.49 731.661 464.49C731.644 464.49 731.628 464.49 731.611 464.49C731.594 464.49 731.577 464.49 731.56 464.49C731.544 464.49 731.527 464.49 731.51 464.49C731.493 464.49 731.476 464.49 731.46 464.49C731.443 464.49 731.426 464.49 731.409 464.49C731.392 464.49 731.376 464.49 731.359 464.49C731.342 464.49 731.325 464.49 731.308 464.49C731.292 464.49 731.275 464.49 731.258 464.49C731.241 464.49 731.224 464.49 731.208 464.49C731.191 464.49 731.174 464.49 731.157 464.49C731.14 464.49 731.124 464.49 731.107 464.49C731.09 464.49 731.073 464.49 731.056 464.49C731.04 464.49 731.023 464.49 731.006 464.49C730.989 464.49 730.972 464.49 730.956 464.49C730.939 464.49 730.922 464.49 730.905 464.49C730.888 464.49 730.872 464.49 730.855 464.49C730.838 464.49 730.821 464.49 730.804 464.49C730.787 464.49 730.771 464.49 730.754 464.49C730.737 464.49 730.72 464.49 730.703 464.49C730.687 464.49 730.67 464.49 730.653 464.49C730.636 464.49 730.619 464.49 730.602 464.49C730.586 464.49 730.569 464.49 730.552 464.49C730.535 464.49 730.518 464.49 730.502 464.49C730.485 464.49 730.468 464.49 730.451 464.49C730.434 464.49 730.417 464.49 730.401 464.49C730.384 464.49 730.367 464.49 730.35 464.49C730.333 464.49 730.317 464.49 730.3 464.49C730.283 464.49 730.266 464.49 730.249 464.49C730.232 464.49 730.216 464.49 730.199 464.49C730.182 464.49 730.165 464.49 730.148 464.49C730.131 464.49 730.115 464.49 730.098 464.49C730.081 464.49 730.064 464.49 730.047 464.49C730.03 464.49 730.014 464.49 729.997 464.49C729.98 464.49 729.963 464.49 729.946 464.49C729.929 464.49 729.913 464.49 729.896 464.49C729.879 464.49 729.862 464.49 729.845 464.49C729.828 464.49 729.812 464.49 729.795 464.49C729.778 464.49 729.761 464.49 729.744 464.49C729.727 464.49 729.71 464.49 729.694 464.49C729.677 464.49 729.66 464.49 729.643 464.49C729.626 464.49 729.609 464.49 729.593 464.49C729.576 464.49 729.559 464.49 729.542 464.49C729.525 464.49 729.508 464.49 729.491 464.49C729.475 464.49 729.458 464.49 729.441 464.49C729.424 464.49 729.407 464.49 729.39 464.49C729.374 464.49 729.357 464.49 729.34 464.49C729.323 464.49 729.306 464.49 729.289 464.49C729.272 464.49 729.256 464.49 729.239 464.49C729.222 464.49 729.205 464.49 729.188 464.49C729.171 464.49 729.154 464.49 729.138 464.49C729.121 464.49 729.104 464.49 729.087 464.49C729.07 464.49 729.053 464.49 729.036 464.49C729.02 464.49 729.003 464.49 728.986 464.49C728.969 464.49 728.952 464.49 728.935 464.49C728.918 464.49 728.902 464.49 728.885 464.49C728.868 464.49 728.851 464.49 728.834 464.49C728.817 464.49 728.8 464.49 728.783 464.49C728.767 464.49 728.75 464.49 728.733 464.49C728.716 464.49 728.699 464.49 728.682 464.49C728.665 464.49 728.648 464.49 728.632 464.49C728.615 464.49 728.598 464.49 728.581 464.49C728.564 464.49 728.547 464.49 728.53 464.49C728.513 464.49 728.497 464.49 728.48 464.49C728.463 464.49 728.446 464.49 728.429 464.49C728.412 464.49 728.395 464.49 728.378 464.49C728.362 464.49 728.345 464.49 728.328 464.49C728.311 464.49 728.294 464.49 728.277 464.49C728.26 464.49 728.243 464.49 728.227 464.49C728.21 464.49 728.193 464.49 728.176 464.49C728.159 464.49 728.142 464.49 728.125 464.49C728.108 464.49 728.091 464.49 728.075 464.49C728.058 464.49 728.041 464.49 728.024 464.49C728.007 464.49 727.99 464.49 727.973 464.49C727.956 464.49 727.939 464.49 727.923 464.49C727.906 464.49 727.889 464.49 727.872 464.49C727.855 464.49 727.838 464.49 727.821 464.49C727.804 464.49 727.787 464.49 727.771 464.49C727.754 464.49 727.737 464.49 727.72 464.49C727.703 464.49 727.686 464.49 727.669 464.49C727.652 464.49 727.635 464.49 727.618 464.49C727.602 464.49 727.585 464.49 727.568 464.49C727.551 464.49 727.534 464.49 727.517 464.49C727.5 464.49 727.483 464.49 727.466 464.49C727.449 464.49 727.433 464.49 727.416 464.49C727.399 464.49 727.382 464.49 727.365 464.49C727.348 464.49 727.331 464.49 727.314 464.49C727.297 464.49 727.28 464.49 727.263 464.49C727.247 464.49 727.23 464.49 727.213 464.49C727.196 464.49 727.179 464.49 727.162 464.49C727.145 464.49 727.128 464.49 727.111 464.49C727.094 464.49 727.077 464.49 727.06 464.49C727.044 464.49 727.027 464.49 727.01 464.49C726.993 464.49 726.976 464.49 726.959 464.49C726.942 464.49 726.925 464.49 726.908 464.49C726.891 464.49 726.874 464.49 726.857 464.49C726.841 464.49 726.824 464.49 726.807 464.49C726.79 464.49 726.773 464.49 726.756 464.49C726.739 464.49 726.722 464.49 726.705 464.49C726.688 464.49 726.671 464.49 726.654 464.49C726.637 464.49 726.621 464.49 726.604 464.49C726.587 464.49 726.57 464.49 726.553 464.49C726.536 464.49 726.519 464.49 726.502 464.49C726.485 464.49 726.468 464.49 726.451 464.49C726.434 464.49 726.417 464.49 726.4 464.49C726.384 464.49 726.367 464.49 726.35 464.49C726.333 464.49 726.316 464.49 726.299 464.49C726.282 464.49 726.265 464.49 726.248 464.49C726.231 464.49 726.214 464.49 726.197 464.49C726.18 464.49 726.163 464.49 726.146 464.49C726.129 464.49 726.113 464.49 726.096 464.49C726.079 464.49 726.062 464.49 726.045 464.49C726.028 464.49 726.011 464.49 725.994 464.49C725.977 464.49 725.96 464.49 725.943 464.49C725.926 464.49 725.909 464.49 725.892 464.49C725.875 464.49 725.858 464.49 725.841 464.49C725.824 464.49 725.807 464.49 725.791 464.49C725.774 464.49 725.757 464.49 725.74 464.49C725.723 464.49 725.706 464.49 725.689 464.49C725.672 464.49 725.655 464.49 725.638 464.49C725.621 464.49 725.604 464.49 725.587 464.49C725.57 464.49 725.553 464.49 725.536 464.49C725.519 464.49 725.502 464.49 725.485 464.49C725.468 464.49 725.451 464.49 725.434 464.49C725.418 464.49 725.401 464.49 725.384 464.49C725.367 464.49 725.35 464.49 725.333 464.49C725.316 464.49 725.299 464.49 725.282 464.49C725.265 464.49 725.248 464.49 725.231 464.49C725.214 464.49 725.197 464.49 725.18 464.49C725.163 464.49 725.146 464.49 725.129 464.49C725.112 464.49 725.095 464.49 725.078 464.49C725.061 464.49 725.044 464.49 725.027 464.49C725.01 464.49 724.993 464.49 724.976 464.49C724.959 464.49 724.942 464.49 724.925 464.49C724.909 464.49 724.892 464.49 724.875 464.49C724.858 464.49 724.841 464.49 724.824 464.49C724.807 464.49 724.79 464.49 724.773 464.49C724.756 464.49 724.739 464.49 724.722 464.49C724.705 464.49 724.688 464.49 724.671 464.49C724.654 464.49 724.637 464.49 724.62 464.49C724.603 464.49 724.586 464.49 724.569 464.49C724.552 464.49 724.535 464.49 724.518 464.49C724.501 464.49 724.484 464.49 724.467 464.49C724.45 464.49 724.433 464.49 724.416 464.49C724.399 464.49 724.382 464.49 724.365 464.49C724.348 464.49 724.331 464.49 724.314 464.49C724.297 464.49 724.28 464.49 724.263 464.49C724.246 464.49 724.229 464.49 724.212 464.49C724.195 464.49 724.178 464.49 724.161 464.49C724.144 464.49 724.127 464.49 724.11 464.49C724.093 464.49 724.076 464.49 724.059 464.49C724.042 464.49 724.025 464.49 724.008 464.49C723.991 464.49 723.974 464.49 723.957 464.49C723.94 464.49 723.923 464.49 723.906 464.49C723.889 464.49 723.872 464.49 723.855 464.49C723.838 464.49 723.821 464.49 723.804 464.49C723.787 464.49 723.77 464.49 723.753 464.49C723.736 464.49 723.719 464.49 723.702 464.49C723.685 464.49 723.668 464.49 723.651 464.49C723.634 464.49 723.617 464.49 723.6 464.49C723.583 464.49 723.566 464.49 723.549 464.49C723.532 464.49 723.515 464.49 723.498 464.49C723.481 464.49 723.464 464.49 723.447 464.49C723.43 464.49 723.413 464.49 723.396 464.49C723.379 464.49 723.362 464.49 723.345 464.49C723.328 464.49 723.311 464.49 723.294 464.49C723.277 464.49 723.26 464.49 723.243 464.49C723.226 464.49 723.209 464.49 723.192 464.49C723.175 464.49 723.158 464.49 723.141 464.49C723.124 464.49 723.107 464.49 723.09 464.49C723.073 464.49 723.056 464.49 723.039 464.49C723.022 464.49 723.005 464.49 722.987 464.49C722.97 464.49 722.953 464.49 722.936 464.49C722.919 464.49 722.902 464.49 722.885 464.49C722.868 464.49 722.851 464.49 722.834 464.49C722.817 464.49 722.8 464.49 722.783 464.49C722.766 464.49 722.749 464.49 722.732 464.49C722.715 464.49 722.698 464.49 722.681 464.49C722.664 464.49 722.647 464.49 722.63 464.49C722.613 464.49 722.596 464.49 722.579 464.49C722.562 464.49 722.545 464.49 722.528 464.49C722.511 464.49 722.494 464.49 722.476 464.49C722.459 464.49 722.442 464.49 722.425 464.49C722.408 464.49 722.391 464.49 722.374 464.49C722.357 464.49 722.34 464.49 722.323 464.49C722.306 464.49 722.289 464.49 722.272 464.49C722.255 464.49 722.238 464.49 722.221 464.49C722.204 464.49 722.187 464.49 722.17 464.49C722.153 464.49 722.136 464.49 722.119 464.49C722.101 464.49 722.084 464.49 722.067 464.49C722.05 464.49 722.033 464.49 722.016 464.49C721.999 464.49 721.982 464.49 721.965 464.49C721.948 464.49 721.931 464.49 721.914 464.49C721.897 464.49 721.88 464.49 721.863 464.49C721.846 464.49 721.829 464.49 721.812 464.49C721.794 464.49 721.777 464.49 721.76 464.49C721.743 464.49 721.726 464.49 721.709 464.49C721.692 464.49 721.675 464.49 721.658 464.49V490.49ZM644.672 285.948C633.059 285.948 621.792 287.819 610.936 291.577L619.44 316.147C627.512 313.353 635.901 311.948 644.672 311.948V285.948ZM610.936 291.577C599.559 295.515 589.511 301.872 580.88 310.504L599.264 328.888C605.193 322.96 611.889 318.761 619.44 316.147L610.936 291.577ZM581.118 310.271C572.037 318.898 565.256 330.243 560.383 343.645L584.817 352.531C588.68 341.909 593.547 334.326 599.026 329.121L581.118 310.271ZM560.428 343.523C555.359 357.039 553.048 372.879 553.048 390.676H579.048C579.048 374.985 581.105 362.433 584.772 352.653L560.428 343.523ZM553.048 390.676C553.048 400.277 553.623 409.128 554.83 417.174L580.542 413.318C579.565 406.804 579.048 399.275 579.048 390.676H553.048ZM554.845 417.273C555.887 423.87 556.764 431.045 557.469 438.809L583.363 436.455C582.612 428.203 581.669 420.454 580.527 413.218L554.845 417.273ZM570.416 424.632C555.398 424.632 546.56 421.179 541.508 416.566L523.976 435.766C535.668 446.441 551.946 450.632 570.416 450.632V424.632ZM541.507 416.566C535.916 411.461 533.184 405.337 533.184 397.228H507.184C507.184 412.415 512.824 425.583 523.977 435.766L541.507 416.566ZM533.184 397.228C533.184 390.595 534.638 387.201 535.948 385.498L515.34 369.646C509.37 377.406 507.184 387.117 507.184 397.228H533.184ZM535.866 385.604C538.551 382.187 542.007 379.422 546.467 377.323L535.397 353.797C527.481 357.522 520.745 362.765 515.422 369.54L535.866 385.604ZM547.157 354.147C547.499 354.334 547.4 354.439 547.029 353.821C546.609 353.121 545.986 351.715 545.463 349.232L520.021 354.588C521.83 363.18 525.885 372.161 534.707 376.973L547.157 354.147ZM545.463 349.232C544.111 342.81 543.558 337.946 543.558 334.438H517.558C517.558 340.394 518.461 347.178 520.021 354.588L545.463 349.232ZM543.558 334.438C543.558 326.531 545.501 319.603 549.307 313.351L527.097 299.833C520.711 310.325 517.558 321.961 517.558 334.438H543.558ZM549.307 313.351C553.347 306.713 558.889 300.963 566.161 296.115L551.739 274.481C541.539 281.281 533.249 289.727 527.097 299.833L549.307 313.351ZM565.958 296.248C573.684 291.302 582.87 287.449 593.681 284.828L587.555 259.56C574.342 262.763 562.416 267.646 551.942 274.348L565.958 296.248ZM594.039 284.736C604.793 281.803 616.731 280.28 629.93 280.28V254.28C614.737 254.28 600.467 256.033 587.197 259.652L594.039 284.736ZM629.93 280.28C642.185 280.28 654.253 281.471 666.146 283.85L671.246 258.354C657.659 255.637 643.883 254.28 629.93 254.28V280.28ZM666.499 283.915C678.843 286.031 690.81 288.672 702.403 291.834L709.245 266.75C696.814 263.36 684.029 260.541 670.893 258.289L666.499 283.915ZM702.761 291.926C714.806 294.846 726.308 297.585 737.268 300.142L743.176 274.822C732.296 272.283 720.866 269.562 708.887 266.658L702.761 291.926ZM737.752 300.245C749.779 302.573 761.527 303.758 772.982 303.758V277.758C763.325 277.758 753.233 276.759 742.692 274.719L737.752 300.245ZM772.982 303.758C787.376 303.758 801.234 301.076 814.457 295.704L804.671 271.616C794.598 275.708 784.068 277.758 772.982 277.758V303.758ZM814.641 295.628C828.902 289.577 842.558 278.932 855.718 264.61L836.574 247.018C824.982 259.632 814.25 267.551 804.487 271.692L814.641 295.628ZM842.993 268.426C843.629 268.585 846.018 269.594 849.972 274.156L869.62 257.128C864.11 250.77 857.399 245.227 849.299 243.202L842.993 268.426ZM850.292 274.512C852.864 277.268 854.44 280.88 854.44 286.39H880.44C880.44 275.156 876.92 264.936 869.3 256.772L850.292 274.512ZM854.44 286.39C854.44 290.078 853.166 293.839 849.502 297.991L868.998 315.193C876.254 306.969 880.44 297.262 880.44 286.39H854.44ZM849.766 297.701C848.055 299.526 843.021 302.328 830.312 302.328V328.328C845.267 328.328 859.525 325.306 868.734 315.483L849.766 297.701ZM817.312 315.328C817.312 316.154 817.111 317.913 816.222 320.874L841.126 328.346C842.421 324.027 843.312 319.598 843.312 315.328H817.312ZM816.341 320.499C815.934 321.72 814.997 323.5 812.952 325.801L832.384 343.075C836.163 338.824 839.23 334.052 841.007 328.721L816.341 320.499ZM812.885 325.877C811.878 327.028 809.919 328.608 806.3 330.279L817.196 353.885C823.041 351.188 828.362 347.672 832.452 342.999L812.885 325.877ZM805.934 330.454C803.963 331.44 800.506 332.358 794.822 332.358V358.358C802.97 358.358 810.797 357.092 817.562 353.71L805.934 330.454ZM794.822 332.358C786.216 332.358 776.558 330.428 765.735 326.165L756.205 350.355C769.406 355.556 782.316 358.358 794.822 358.358V332.358ZM766.181 326.35C754.5 321.24 742.276 315.949 729.509 310.477L719.267 334.375C731.98 339.823 744.144 345.088 755.759 350.17L766.181 326.35ZM729.923 310.663C717.131 304.643 703.798 299.199 689.931 294.327L681.313 318.857C694.382 323.449 706.893 328.561 718.853 334.189L729.923 310.663ZM690.223 294.433C675.346 288.804 660.14 285.948 644.672 285.948V311.948C656.868 311.948 668.962 314.188 681.021 318.751L690.223 294.433Z" fill="#010101"/>
<path d="M300.364 654.394C300.364 663.13 302.002 670.046 305.278 675.142C308.918 680.238 313.104 684.06 317.836 686.608C322.932 688.792 328.21 690.248 333.67 690.976C339.494 691.704 344.59 692.068 348.958 692.068V715C344.59 715 339.13 714.818 332.578 714.454C326.026 713.726 319.292 712.998 312.376 712.27C305.46 711.542 298.726 710.996 292.174 710.632C285.622 709.904 280.162 709.54 275.794 709.54C271.426 709.54 265.966 709.904 259.414 710.632C252.862 710.996 246.128 711.542 239.212 712.27C232.296 712.998 225.562 713.726 219.01 714.454C212.458 714.818 206.998 715 202.63 715V692.068C207.362 692.068 212.64 691.704 218.464 690.976C224.288 690.248 229.566 688.792 234.298 686.608C239.03 684.06 243.034 680.238 246.31 675.142C249.586 670.046 251.224 663.13 251.224 654.394V438.178C251.224 424.71 250.86 413.608 250.132 404.872C249.768 395.772 248.312 388.856 245.764 384.124C243.216 379.028 239.576 375.57 234.844 373.75C230.112 371.566 223.56 370.474 215.188 370.474V351.364C224.288 351.364 232.114 350.818 238.666 349.726C245.582 348.634 251.77 346.996 257.23 344.812C262.69 342.628 267.604 340.08 271.972 337.168C276.704 334.256 281.618 331.162 286.714 327.886H300.364V654.394ZM310.192 500.968C314.56 503.88 320.93 507.338 329.302 511.342C337.674 515.346 348.776 517.348 362.608 517.348C379.716 517.348 393.184 513.89 403.012 506.974C412.84 499.694 420.12 490.958 424.852 480.766C429.948 470.574 433.042 459.836 434.134 448.552C435.59 437.268 436.318 427.622 436.318 419.614C436.318 406.51 435.044 392.496 432.496 377.572C429.948 362.648 424.124 348.998 415.024 336.622C405.924 324.246 392.456 314.054 374.62 306.046C357.148 297.674 333.488 293.488 303.64 293.488C278.16 293.488 256.502 296.764 238.666 303.316C221.194 309.868 206.998 319.332 196.078 331.708C185.158 344.084 177.15 359.554 172.054 378.118C167.322 396.318 164.956 417.066 164.956 440.362C160.224 440.362 154.946 439.452 149.122 437.632C143.662 435.812 138.566 433.082 133.834 429.442C129.102 425.802 125.098 421.252 121.822 415.792C118.546 410.332 116.908 403.962 116.908 396.682C116.908 388.31 119.274 380.484 124.006 373.204C128.738 365.56 135.654 361.738 144.754 361.738C141.842 359.554 139.84 355.914 138.748 350.818C138.02 345.722 137.656 341.354 137.656 337.714C137.656 325.338 142.57 314.782 152.398 306.046C162.226 296.946 174.784 289.666 190.072 284.206C205.724 278.382 223.014 274.196 241.942 271.648C261.234 269.1 280.344 267.826 299.272 267.826C335.308 267.826 365.52 272.012 389.908 280.384C414.296 288.756 433.952 299.858 448.876 313.69C463.8 327.158 474.538 342.81 481.09 360.646C487.642 378.118 490.918 396.136 490.918 414.7C490.918 429.988 488.734 445.458 484.366 461.11C480.362 476.398 473.81 490.23 464.71 502.606C455.61 514.618 443.78 524.446 429.22 532.09C415.024 539.734 397.916 543.556 377.896 543.556C365.156 543.556 354.418 542.1 345.682 539.188C337.31 536.276 330.576 532.636 325.48 528.268C320.384 523.9 316.562 519.532 314.014 515.164C311.83 510.432 310.556 506.428 310.192 503.152V500.968Z" fill="#0059AB"/>
<path d="M305.278 675.142L294.343 682.172L294.515 682.439L294.699 682.698L305.278 675.142ZM317.836 686.608L311.673 698.054L312.183 698.329L312.715 698.557L317.836 686.608ZM333.67 690.976L331.952 703.862L332.005 703.869L332.058 703.876L333.67 690.976ZM348.958 692.068H361.958V679.068H348.958V692.068ZM348.958 715V728H361.958V715H348.958ZM332.578 714.454L331.142 727.374L331.499 727.414L331.857 727.434L332.578 714.454ZM312.376 712.27L311.015 725.199L311.015 725.199L312.376 712.27ZM292.174 710.632L290.738 723.552L291.095 723.592L291.453 723.612L292.174 710.632ZM259.414 710.632L260.135 723.612L260.493 723.592L260.85 723.552L259.414 710.632ZM239.212 712.27L240.573 725.199L240.573 725.199L239.212 712.27ZM219.01 714.454L219.731 727.434L220.089 727.414L220.446 727.374L219.01 714.454ZM202.63 715H189.63V728H202.63V715ZM202.63 692.068V679.068H189.63V692.068H202.63ZM218.464 690.976L220.076 703.876L220.076 703.876L218.464 690.976ZM234.298 686.608L239.746 698.411L240.109 698.244L240.461 698.054L234.298 686.608ZM246.31 675.142L235.375 668.112L235.375 668.112L246.31 675.142ZM250.132 404.872L237.142 405.392L237.154 405.672L237.177 405.952L250.132 404.872ZM245.764 384.124L234.136 389.938L234.225 390.114L234.318 390.287L245.764 384.124ZM234.844 373.75L229.396 385.553L229.781 385.731L230.177 385.883L234.844 373.75ZM215.188 370.474H202.188V383.474H215.188V370.474ZM215.188 351.364V338.364H202.188V351.364H215.188ZM238.666 349.726L236.638 336.885L236.584 336.894L236.529 336.903L238.666 349.726ZM257.23 344.812L262.058 356.882L262.058 356.882L257.23 344.812ZM271.972 337.168L265.159 326.096L264.957 326.22L264.761 326.351L271.972 337.168ZM286.714 327.886V314.886H282.896L279.684 316.951L286.714 327.886ZM300.364 327.886H313.364V314.886H300.364V327.886ZM310.192 500.968L317.403 490.151L297.192 476.677V500.968H310.192ZM329.302 511.342L334.911 499.614L334.911 499.614L329.302 511.342ZM403.012 506.974L410.493 517.605L410.623 517.514L410.75 517.42L403.012 506.974ZM424.852 480.766L413.224 474.952L413.14 475.121L413.061 475.292L424.852 480.766ZM434.134 448.552L421.241 446.888L421.214 447.094L421.194 447.3L434.134 448.552ZM432.496 377.572L445.311 375.384L445.311 375.384L432.496 377.572ZM415.024 336.622L404.551 344.323L404.551 344.323L415.024 336.622ZM374.62 306.046L369.002 317.77L369.148 317.839L369.295 317.906L374.62 306.046ZM238.666 303.316L234.183 291.113L234.142 291.128L234.101 291.144L238.666 303.316ZM196.078 331.708L205.826 340.309L205.826 340.309L196.078 331.708ZM172.054 378.118L159.518 374.677L159.494 374.762L159.472 374.847L172.054 378.118ZM164.956 440.362V453.362H177.956V440.362H164.956ZM149.122 437.632L145.011 449.965L145.127 450.004L145.244 450.04L149.122 437.632ZM133.834 429.442L125.908 439.746L125.908 439.746L133.834 429.442ZM121.822 415.792L110.675 422.48L121.822 415.792ZM124.006 373.204L134.906 380.289L134.984 380.169L135.059 380.047L124.006 373.204ZM144.754 361.738V374.738H183.754L152.554 351.338L144.754 361.738ZM138.748 350.818L125.879 352.656L125.942 353.102L126.037 353.542L138.748 350.818ZM152.398 306.046L161.035 315.762L161.133 315.675L161.23 315.585L152.398 306.046ZM190.072 284.206L194.444 296.449L194.525 296.42L194.606 296.39L190.072 284.206ZM241.942 271.648L240.24 258.76L240.224 258.762L240.208 258.764L241.942 271.648ZM389.908 280.384L394.129 268.088L394.129 268.088L389.908 280.384ZM448.876 313.69L440.039 323.225L440.102 323.283L440.166 323.341L448.876 313.69ZM481.09 360.646L468.887 365.129L468.902 365.17L468.918 365.211L481.09 360.646ZM484.366 461.11L471.844 457.616L471.817 457.716L471.79 457.816L484.366 461.11ZM464.71 502.606L475.072 510.456L475.128 510.382L475.183 510.307L464.71 502.606ZM429.22 532.09L423.177 520.58L423.117 520.612L423.057 520.644L429.22 532.09ZM345.682 539.188L341.411 551.466L341.491 551.494L341.571 551.521L345.682 539.188ZM314.014 515.164L302.211 520.612L302.471 521.177L302.785 521.714L314.014 515.164ZM310.192 503.152H297.192V503.872L297.272 504.588L310.192 503.152ZM287.364 654.394C287.364 664.577 289.247 674.245 294.343 682.172L316.213 668.112C314.757 665.847 313.364 661.683 313.364 654.394H287.364ZM294.699 682.698C299.304 689.145 304.924 694.42 311.673 698.054L323.999 675.162C321.284 673.7 318.532 671.331 315.857 667.586L294.699 682.698ZM312.715 698.557C318.89 701.203 325.313 702.977 331.952 703.862L335.388 678.09C331.107 677.519 326.974 676.381 322.957 674.659L312.715 698.557ZM332.058 703.876C338.248 704.649 343.904 705.068 348.958 705.068V679.068C345.276 679.068 340.74 678.759 335.282 678.076L332.058 703.876ZM335.958 692.068V715H361.958V692.068H335.958ZM348.958 702C344.917 702 339.717 701.831 333.299 701.474L331.857 727.434C338.543 727.805 344.263 728 348.958 728V702ZM334.014 701.534C327.435 700.803 320.676 700.072 313.737 699.341L311.015 725.199C317.908 725.924 324.617 726.649 331.142 727.374L334.014 701.534ZM313.737 699.341C306.621 698.592 299.673 698.029 292.895 697.652L291.453 723.612C297.779 723.963 304.299 724.492 311.015 725.199L313.737 699.341ZM293.61 697.712C286.795 696.954 280.817 696.54 275.794 696.54V722.54C279.507 722.54 284.45 722.854 290.738 723.552L293.61 697.712ZM275.794 696.54C270.771 696.54 264.794 696.954 257.978 697.712L260.85 723.552C267.139 722.854 272.081 722.54 275.794 722.54V696.54ZM258.693 697.652C251.915 698.029 244.967 698.592 237.851 699.341L240.573 725.199C247.289 724.492 253.809 723.963 260.135 723.612L258.693 697.652ZM237.851 699.341C230.912 700.072 224.153 700.803 217.574 701.534L220.446 727.374C226.971 726.649 233.68 725.924 240.573 725.199L237.851 699.341ZM218.289 701.474C211.871 701.831 206.671 702 202.63 702V728C207.325 728 213.045 727.805 219.731 727.434L218.289 701.474ZM215.63 715V692.068H189.63V715H215.63ZM202.63 705.068C208.011 705.068 213.839 704.655 220.076 703.876L216.852 678.076C211.441 678.753 206.713 679.068 202.63 679.068V705.068ZM220.076 703.876C227.063 703.002 233.657 701.222 239.746 698.411L228.85 674.805C225.475 676.362 221.513 677.494 216.852 678.076L220.076 703.876ZM240.461 698.054C247.369 694.335 252.932 688.881 257.245 682.172L235.375 668.112C233.136 671.595 230.691 673.785 228.135 675.162L240.461 698.054ZM257.245 682.172C262.341 674.245 264.224 664.577 264.224 654.394H238.224C238.224 661.683 236.831 665.847 235.375 668.112L257.245 682.172ZM264.224 654.394V438.178H238.224V654.394H264.224ZM264.224 438.178C264.224 424.518 263.856 413.023 263.087 403.792L237.177 405.952C237.864 414.193 238.224 424.902 238.224 438.178H264.224ZM263.122 404.352C262.726 394.471 261.131 385.243 257.21 377.961L234.318 390.287C235.493 392.469 236.81 397.073 237.142 405.392L263.122 404.352ZM257.392 378.31C253.586 370.7 247.651 364.747 239.511 361.617L230.177 385.883C231.501 386.393 232.846 387.356 234.136 389.938L257.392 378.31ZM240.292 361.947C233.125 358.639 224.43 357.474 215.188 357.474V383.474C222.69 383.474 227.099 384.493 229.396 385.553L240.292 361.947ZM228.188 370.474V351.364H202.188V370.474H228.188ZM215.188 364.364C224.762 364.364 233.341 363.793 240.803 362.549L236.529 336.903C230.887 337.843 223.814 338.364 215.188 338.364V364.364ZM240.694 362.567C248.393 361.351 255.545 359.488 262.058 356.882L252.402 332.742C247.995 334.504 242.771 335.917 236.638 336.885L240.694 362.567ZM262.058 356.882C268.255 354.403 273.983 351.451 279.183 347.985L264.761 326.351C261.225 328.709 257.125 330.853 252.402 332.742L262.058 356.882ZM278.785 348.24C283.596 345.279 288.582 342.139 293.744 338.821L279.684 316.951C274.654 320.185 269.812 323.233 265.159 326.096L278.785 348.24ZM286.714 340.886H300.364V314.886H286.714V340.886ZM287.364 327.886V654.394H313.364V327.886H287.364ZM302.981 511.785C308.106 515.202 315.118 518.969 323.693 523.07L334.911 499.614C326.742 495.707 321.014 492.558 317.403 490.151L302.981 511.785ZM323.693 523.07C334.461 528.22 347.706 530.348 362.608 530.348V504.348C349.846 504.348 340.887 502.472 334.911 499.614L323.693 523.07ZM362.608 530.348C381.302 530.348 397.725 526.59 410.493 517.605L395.531 496.343C388.643 501.19 378.13 504.348 362.608 504.348V530.348ZM410.75 517.42C422.165 508.965 430.917 498.573 436.643 486.24L413.061 475.292C409.323 483.343 403.515 490.423 395.274 496.528L410.75 517.42ZM436.48 486.58C442.285 474.968 445.827 462.685 447.074 449.804L421.194 447.3C420.257 456.987 417.611 466.18 413.224 474.952L436.48 486.58ZM447.027 450.216C448.527 438.589 449.318 428.355 449.318 419.614H423.318C423.318 426.889 422.653 435.947 421.241 446.888L447.027 450.216ZM449.318 419.614C449.318 405.674 447.963 390.922 445.311 375.384L419.681 379.76C422.125 394.07 423.318 407.346 423.318 419.614H449.318ZM445.311 375.384C442.417 358.435 435.778 342.903 425.497 328.921L404.551 344.323C412.47 355.093 417.479 366.861 419.681 379.76L445.311 375.384ZM425.497 328.921C414.754 314.309 399.28 302.868 379.945 294.186L369.295 317.906C385.632 325.24 397.094 334.183 404.551 344.323L425.497 328.921ZM380.238 294.322C360.32 284.779 334.483 280.488 303.64 280.488V306.488C332.493 306.488 353.976 310.569 369.002 317.77L380.238 294.322ZM303.64 280.488C277.12 280.488 253.852 283.888 234.183 291.113L243.149 315.519C259.152 309.64 279.2 306.488 303.64 306.488V280.488ZM234.101 291.144C214.899 298.345 198.834 308.935 186.33 323.107L205.826 340.309C215.162 329.729 227.489 321.391 243.231 315.488L234.101 291.144ZM186.33 323.107C173.899 337.196 165.051 354.52 159.518 374.677L184.59 381.559C189.249 364.588 196.417 350.972 205.826 340.309L186.33 323.107ZM159.472 374.847C154.406 394.333 151.956 416.213 151.956 440.362H177.956C177.956 417.919 180.238 398.303 184.636 381.389L159.472 374.847ZM164.956 427.362C161.856 427.362 157.912 426.759 153 425.224L145.244 450.04C151.98 452.145 158.592 453.362 164.956 453.362V427.362ZM153.233 425.299C149.2 423.955 145.386 421.927 141.76 419.138L125.908 439.746C131.746 444.237 138.124 447.669 145.011 449.965L153.233 425.299ZM141.76 419.138C138.403 416.555 135.464 413.261 132.969 409.104L110.675 422.48C114.732 429.243 119.801 435.049 125.908 439.746L141.76 419.138ZM132.969 409.104C131.071 405.94 129.908 401.95 129.908 396.682H103.908C103.908 405.974 106.021 414.724 110.675 422.48L132.969 409.104ZM129.908 396.682C129.908 390.922 131.491 385.543 134.906 380.289L113.106 366.119C107.057 375.425 103.908 385.698 103.908 396.682H129.908ZM135.059 380.047C137.387 376.287 140.089 374.738 144.754 374.738V348.738C131.219 348.738 120.089 354.832 112.953 366.361L135.059 380.047ZM152.554 351.338C153.046 351.707 152.174 351.429 151.459 348.094L126.037 353.542C127.506 360.399 130.638 367.401 136.954 372.138L152.554 351.338ZM151.617 348.979C150.944 344.265 150.656 340.545 150.656 337.714H124.656C124.656 342.163 125.096 347.179 125.879 352.656L151.617 348.979ZM150.656 337.714C150.656 329.306 153.786 322.206 161.035 315.762L143.761 296.33C131.354 307.358 124.656 321.37 124.656 337.714H150.656ZM161.23 315.585C169.527 307.903 180.468 301.44 194.444 296.449L185.7 271.963C169.1 277.892 154.925 285.989 143.566 296.507L161.23 315.585ZM194.606 296.39C209.235 290.946 225.571 286.969 243.676 284.532L240.208 258.764C220.457 261.423 202.213 265.818 185.538 272.022L194.606 296.39ZM243.644 284.536C262.388 282.06 280.929 280.826 299.272 280.826V254.826C279.759 254.826 260.08 256.139 240.24 258.76L243.644 284.536ZM299.272 280.826C334.398 280.826 363.079 284.919 385.687 292.68L394.129 268.088C367.961 259.105 336.218 254.826 299.272 254.826V280.826ZM385.687 292.68C408.803 300.615 426.749 310.907 440.039 323.225L457.713 304.155C441.155 288.809 419.789 276.897 394.129 268.088L385.687 292.68ZM440.166 323.341C453.617 335.48 463.105 349.388 468.887 365.129L493.293 356.163C485.971 336.232 473.983 318.836 457.586 304.039L440.166 323.341ZM468.918 365.211C474.925 381.231 477.918 397.703 477.918 414.7H503.918C503.918 394.569 500.359 375.005 493.262 356.081L468.918 365.211ZM477.918 414.7C477.918 428.735 475.915 443.03 471.844 457.616L496.888 464.604C501.553 447.886 503.918 431.241 503.918 414.7H477.918ZM471.79 457.816C468.19 471.562 462.335 483.89 454.237 494.905L475.183 510.307C485.285 496.57 492.534 481.234 496.942 464.404L471.79 457.816ZM454.348 494.756C446.503 505.111 436.202 513.742 423.177 520.58L435.263 543.6C451.358 535.15 464.717 524.125 475.072 510.456L454.348 494.756ZM423.057 520.644C411.16 527.05 396.277 530.556 377.896 530.556V556.556C399.555 556.556 418.888 552.418 435.383 543.536L423.057 520.644ZM377.896 530.556C366.058 530.556 356.804 529.192 349.793 526.855L341.571 551.521C352.032 555.008 364.254 556.556 377.896 556.556V530.556ZM349.953 526.91C342.65 524.369 337.477 521.429 333.94 518.398L317.02 538.138C323.675 543.843 331.97 548.183 341.411 551.466L349.953 526.91ZM333.94 518.398C329.607 514.684 326.865 511.394 325.243 508.614L302.785 521.714C306.259 527.67 311.161 533.116 317.02 538.138L333.94 518.398ZM325.817 509.716C323.92 505.605 323.259 503.038 323.113 501.716L297.272 504.588C297.853 509.818 299.74 515.259 302.211 520.612L325.817 509.716ZM323.192 503.152V500.968H297.192V503.152H323.192Z" fill="#010101"/>
</svg>
