<svg width="1000" height="1000" viewBox="0 0 1000 1000" fill="none" xmlns="http://www.w3.org/2000/svg">
<circle cx="500" cy="500" r="480" fill="#D9D9D9" stroke="#484848" stroke-width="40"/>
<path d="M747.32 477.49C762.972 477.49 776.986 476.034 789.362 473.122C802.102 469.846 813.022 465.478 822.122 460.018C823.942 461.838 825.58 464.386 827.036 467.662C828.856 470.938 829.766 474.578 829.766 478.582C829.766 488.046 824.488 496.054 813.932 502.606C803.376 508.794 786.814 511.888 764.246 511.888C752.598 511.888 741.132 511.342 729.848 510.25C718.564 508.794 707.28 506.974 695.996 504.79V654.394C695.996 663.13 697.634 670.046 700.91 675.142C704.55 680.238 708.736 684.06 713.468 686.608C718.564 688.792 723.842 690.248 729.302 690.976C735.126 691.704 740.222 692.068 744.59 692.068V715C740.222 715 734.762 714.818 728.21 714.454C721.658 713.726 714.924 712.998 708.008 712.27C701.092 711.542 694.358 710.996 687.806 710.632C681.254 709.904 675.794 709.54 671.426 709.54C667.058 709.54 661.598 709.904 655.046 710.632C648.494 710.996 641.76 711.542 634.844 712.27C627.928 712.998 621.194 713.726 614.642 714.454C608.09 714.818 602.63 715 598.262 715V692.068C602.994 692.068 608.272 691.704 614.096 690.976C619.92 690.248 625.198 688.792 629.93 686.608C634.662 684.06 638.666 680.238 641.942 675.142C645.218 670.046 646.856 663.13 646.856 654.394V449.098C646.856 435.63 646.492 424.528 645.764 415.792C645.4 406.692 643.944 399.776 641.396 395.044C638.848 389.948 635.208 386.49 630.476 384.67C625.744 382.486 619.192 381.394 610.82 381.394V362.284C619.92 362.284 627.746 361.738 634.298 360.646C641.214 359.554 647.402 357.916 652.862 355.732C658.322 353.548 663.236 351 667.604 348.088C672.336 345.176 677.25 342.082 682.346 338.806H695.996V475.852C704.368 476.58 712.922 477.126 721.658 477.49C730.394 477.49 738.948 477.49 747.32 477.49ZM644.672 298.948C634.48 298.948 624.652 300.586 615.188 303.862C605.724 307.138 597.352 312.416 590.072 319.696C582.792 326.612 576.968 336.076 572.6 348.088C568.232 359.736 566.048 373.932 566.048 390.676C566.048 399.776 566.594 407.966 567.686 415.246C568.778 422.162 569.688 429.624 570.416 437.632C553.672 437.632 541.114 433.81 532.742 426.166C524.37 418.522 520.184 408.876 520.184 397.228C520.184 388.856 522.004 382.304 525.644 377.572C529.648 372.476 534.744 368.472 540.932 365.56C536.928 363.376 534.198 358.826 532.742 351.91C531.286 344.994 530.558 339.17 530.558 334.438C530.558 324.246 533.106 314.964 538.202 306.592C543.298 298.22 550.214 291.122 558.95 285.298C568.05 279.474 578.606 275.106 590.618 272.194C602.63 268.918 615.734 267.28 629.93 267.28C643.034 267.28 655.956 268.554 668.696 271.102C681.436 273.286 693.812 276.016 705.824 279.292C717.836 282.204 729.302 284.934 740.222 287.482C751.506 289.666 762.426 290.758 772.982 290.758C785.722 290.758 797.916 288.392 809.564 283.66C821.576 278.564 833.77 269.282 846.146 255.814C850.514 256.906 855.064 260.182 859.796 265.642C864.892 271.102 867.44 278.018 867.44 286.39C867.44 293.67 864.71 300.404 859.25 306.592C853.79 312.416 844.144 315.328 830.312 315.328C830.312 317.876 829.766 320.97 828.674 324.61C827.582 327.886 825.58 331.162 822.668 334.438C820.12 337.35 816.48 339.898 811.748 342.082C807.38 344.266 801.738 345.358 794.822 345.358C784.266 345.358 772.982 342.992 760.97 338.26C749.322 333.164 737.128 327.886 724.388 322.426C712.012 316.602 699.09 311.324 685.622 306.592C672.154 301.496 658.504 298.948 644.672 298.948Z" fill="#DC6F2E"/>
<path d="M300.364 654.394C300.364 663.13 302.002 670.046 305.278 675.142C308.918 680.238 313.104 684.06 317.836 686.608C322.932 688.792 328.21 690.248 333.67 690.976C339.494 691.704 344.59 692.068 348.958 692.068V715C344.59 715 339.13 714.818 332.578 714.454C326.026 713.726 319.292 712.998 312.376 712.27C305.46 711.542 298.726 710.996 292.174 710.632C285.622 709.904 280.162 709.54 275.794 709.54C271.426 709.54 265.966 709.904 259.414 710.632C252.862 710.996 246.128 711.542 239.212 712.27C232.296 712.998 225.562 713.726 219.01 714.454C212.458 714.818 206.998 715 202.63 715V692.068C207.362 692.068 212.64 691.704 218.464 690.976C224.288 690.248 229.566 688.792 234.298 686.608C239.03 684.06 243.034 680.238 246.31 675.142C249.586 670.046 251.224 663.13 251.224 654.394V438.178C251.224 424.71 250.86 413.608 250.132 404.872C249.768 395.772 248.312 388.856 245.764 384.124C243.216 379.028 239.576 375.57 234.844 373.75C230.112 371.566 223.56 370.474 215.188 370.474V351.364C224.288 351.364 232.114 350.818 238.666 349.726C245.582 348.634 251.77 346.996 257.23 344.812C262.69 342.628 267.604 340.08 271.972 337.168C276.704 334.256 281.618 331.162 286.714 327.886H300.364V654.394ZM310.192 500.968C314.56 503.88 320.93 507.338 329.302 511.342C337.674 515.346 348.776 517.348 362.608 517.348C379.716 517.348 393.184 513.89 403.012 506.974C412.84 499.694 420.12 490.958 424.852 480.766C429.948 470.574 433.042 459.836 434.134 448.552C435.59 437.268 436.318 427.622 436.318 419.614C436.318 406.51 435.044 392.496 432.496 377.572C429.948 362.648 424.124 348.998 415.024 336.622C405.924 324.246 392.456 314.054 374.62 306.046C357.148 297.674 333.488 293.488 303.64 293.488C278.16 293.488 256.502 296.764 238.666 303.316C221.194 309.868 206.998 319.332 196.078 331.708C185.158 344.084 177.15 359.554 172.054 378.118C167.322 396.318 164.956 417.066 164.956 440.362C160.224 440.362 154.946 439.452 149.122 437.632C143.662 435.812 138.566 433.082 133.834 429.442C129.102 425.802 125.098 421.252 121.822 415.792C118.546 410.332 116.908 403.962 116.908 396.682C116.908 388.31 119.274 380.484 124.006 373.204C128.738 365.56 135.654 361.738 144.754 361.738C141.842 359.554 139.84 355.914 138.748 350.818C138.02 345.722 137.656 341.354 137.656 337.714C137.656 325.338 142.57 314.782 152.398 306.046C162.226 296.946 174.784 289.666 190.072 284.206C205.724 278.382 223.014 274.196 241.942 271.648C261.234 269.1 280.344 267.826 299.272 267.826C335.308 267.826 365.52 272.012 389.908 280.384C414.296 288.756 433.952 299.858 448.876 313.69C463.8 327.158 474.538 342.81 481.09 360.646C487.642 378.118 490.918 396.136 490.918 414.7C490.918 429.988 488.734 445.458 484.366 461.11C480.362 476.398 473.81 490.23 464.71 502.606C455.61 514.618 443.78 524.446 429.22 532.09C415.024 539.734 397.916 543.556 377.896 543.556C365.156 543.556 354.418 542.1 345.682 539.188C337.31 536.276 330.576 532.636 325.48 528.268C320.384 523.9 316.562 519.532 314.014 515.164C311.83 510.432 310.556 506.428 310.192 503.152V500.968Z" fill="#0059AB"/>
</svg>
